<?xml version="1.0" encoding="utf-8"?>
<!-- Generator: Adobe Illustrator 23.0.0, SVG Export Plug-In . SVG Version: 6.00 Build 0)  -->
<svg version="1.1" xmlns="http://www.w3.org/2000/svg" xmlns:xlink="http://www.w3.org/1999/xlink" x="0px" y="0px"
	 viewBox="0 0 1920 1080" style="enable-background:new 0 0 1920 1080;" xml:space="preserve">
<style type="text/css">
	.st0{clip-path:url(#SVGID_2_);}
	.st1{clip-path:url(#SVGID_4_);fill:#FF86BE;stroke:#000000;stroke-width:5.5;stroke-miterlimit:10;}
	.st2{clip-path:url(#SVGID_4_);fill:#FF7BAC;stroke:#000000;stroke-width:5.5;stroke-miterlimit:10;}
	.st3{clip-path:url(#SVGID_4_);}
	.st4{fill:#FFFFFF;}
</style>
<g id="bubbles">
	<g>
		<defs>
			<rect id="SVGID_1_" y="0" width="1920" height="1080"/>
		</defs>
		<clipPath id="SVGID_2_">
			<use xlink:href="#SVGID_1_"  style="overflow:visible;"/>
		</clipPath>
		<g class="st0">
			<defs>
				<rect id="SVGID_3_" x="-17" y="-9.13" width="1954" height="1099.13"/>
			</defs>
			<clipPath id="SVGID_4_">
				<use xlink:href="#SVGID_3_"  style="overflow:visible;"/>
			</clipPath>
			<path class="st1" d="M2027.12-21.94c0,0,84.96,60.37,87.14,153.68s-87.14,165.75-87.14,165.75s-189.53,148.19,87.14,254.66
				s0,431.39,0,431.39l-150.32,180.02H1643.7V-21.94H2027.12z"/>
			<path class="st2" d="M1784.36-51.82c0,0,60.62,60.37,62.18,153.68s-62.18,165.75-62.18,165.75s-135.24,148.19,62.18,254.66
				s0,431.39,0,431.39l-107.26,180.02h-228.51V-51.82H1784.36z"/>
			<path class="st1" d="M1560.43-22.97c0,0,54.27,58.9,55.66,149.94s-55.66,161.72-55.66,161.72s-121.07,144.58,55.66,248.47
				s0,420.89,0,420.89l-96.02,175.64h-204.57V-22.97H1560.43z"/>
			<path class="st2" d="M1377.19-3.91c0,0,65.27,56.67,66.94,144.26s-66.94,155.59-66.94,155.59s-145.6,139.11,66.94,239.06
				s0,404.96,0,404.96l-115.48,168.99h-246.02V-3.91H1377.19z"/>
			<path class="st1" d="M1136.6-32.25c0,0,57.74,58.64,59.22,149.27s-59.22,161-59.22,161s-128.8,143.94,59.22,247.36
				s0,419.02,0,419.02l-102.15,174.86H876.03V-32.25H1136.6z"/>
			<path class="st2" d="M932.2-240.39c0,0,63.93,72.42,65.57,184.33c1.64,111.92-65.57,198.81-65.57,198.81
				S789.57,320.5,997.77,448.22s0,517.44,0,517.44l-113.12,215.93H643.67V-240.39H932.2z"/>
			<path class="st1" d="M710.33-2.88c0,0,54.27,56.67,55.66,144.26c1.39,87.59-55.66,155.59-55.66,155.59S589.26,436.08,766,536.03
				s0,404.96,0,404.96l-96.02,168.99H465.41V-2.88H710.33z"/>
			<path class="st2" d="M509.4-4.94c0,0,54.27,56.67,55.66,144.26S509.4,294.91,509.4,294.91s-121.07,139.11,55.66,239.06
				s0,404.96,0,404.96l-96.02,168.99H264.48V-4.94H509.4z"/>
			<path class="st1" d="M319.8-4.94c0,0,54.27,56.67,55.66,144.26c1.39,87.59-55.66,155.59-55.66,155.59
				s-121.07,139.11,55.66,239.06s0,404.96,0,404.96l-96.02,168.99H74.88V-4.94H319.8z"/>
			<g class="st3">
				<g>
					<g>
						<path class="st4" d="M1244.92,164.91c-21.21,0-38.47-17.26-38.47-38.47c0-21.21,17.26-38.47,38.47-38.47
							s38.47,17.26,38.47,38.47C1283.39,147.65,1266.14,164.91,1244.92,164.91z"/>
						<path d="M1244.93,90.72c19.69,0,35.72,16.02,35.72,35.72s-16.02,35.72-35.72,35.72c-19.69,0-35.72-16.02-35.72-35.72
							S1225.23,90.72,1244.93,90.72 M1244.93,85.22c-22.76,0-41.22,18.45-41.22,41.22s18.45,41.22,41.22,41.22
							c22.76,0,41.22-18.45,41.22-41.22S1267.69,85.22,1244.93,85.22L1244.93,85.22z"/>
					</g>
					<g>
						<path class="st4" d="M1244.41,150.48c-13.54,0-24.56-11.02-24.56-24.56s11.02-24.56,24.56-24.56
							c13.54,0,24.56,11.02,24.56,24.56S1257.95,150.48,1244.41,150.48z"/>
						<path d="M1244.41,104.12c12.02,0,21.81,9.78,21.81,21.81c0,12.02-9.78,21.81-21.81,21.81s-21.81-9.78-21.81-21.81
							C1222.6,113.9,1232.39,104.12,1244.41,104.12 M1244.41,98.62c-15.08,0-27.31,12.23-27.31,27.31s12.23,27.31,27.31,27.31
							s27.31-12.23,27.31-27.31S1259.49,98.62,1244.41,98.62L1244.41,98.62z"/>
					</g>
				</g>
				<g>
					<g>
						<path class="st4" d="M1244.92,964.52c-21.21,0-38.47-17.26-38.47-38.47s17.26-38.47,38.47-38.47s38.47,17.26,38.47,38.47
							S1266.14,964.52,1244.92,964.52z"/>
						<path d="M1244.93,890.33c19.69,0,35.72,16.02,35.72,35.72s-16.02,35.72-35.72,35.72c-19.69,0-35.72-16.02-35.72-35.72
							S1225.23,890.33,1244.93,890.33 M1244.93,884.83c-22.76,0-41.22,18.45-41.22,41.22c0,22.76,18.45,41.22,41.22,41.22
							c22.76,0,41.22-18.45,41.22-41.22C1286.14,903.28,1267.69,884.83,1244.93,884.83L1244.93,884.83z"/>
					</g>
					<g>
						<path class="st4" d="M1244.41,950.09c-13.54,0-24.56-11.02-24.56-24.56s11.02-24.56,24.56-24.56
							c13.54,0,24.56,11.02,24.56,24.56S1257.95,950.09,1244.41,950.09z"/>
						<path d="M1244.41,903.73c12.02,0,21.81,9.78,21.81,21.81c0,12.02-9.78,21.81-21.81,21.81s-21.81-9.78-21.81-21.81
							C1222.6,913.51,1232.39,903.73,1244.41,903.73 M1244.41,898.23c-15.08,0-27.31,12.23-27.31,27.31
							c0,15.08,12.23,27.31,27.31,27.31s27.31-12.23,27.31-27.31C1271.72,910.45,1259.49,898.23,1244.41,898.23L1244.41,898.23z"/>
					</g>
				</g>
				<g>
					<g>
						<path class="st4" d="M1377.85,766.67c-21.21,0-38.47-17.26-38.47-38.47s17.26-38.47,38.47-38.47s38.47,17.26,38.47,38.47
							S1399.06,766.67,1377.85,766.67z"/>
						<path d="M1377.85,692.49c19.69,0,35.72,16.02,35.72,35.72s-16.02,35.72-35.72,35.72c-19.69,0-35.72-16.02-35.72-35.72
							S1358.16,692.49,1377.85,692.49 M1377.85,686.99c-22.76,0-41.22,18.45-41.22,41.22c0,22.76,18.45,41.22,41.22,41.22
							c22.76,0,41.22-18.45,41.22-41.22C1419.07,705.44,1400.61,686.99,1377.85,686.99L1377.85,686.99z"/>
					</g>
					<g>
						<path class="st4" d="M1377.33,752.25c-13.54,0-24.56-11.02-24.56-24.56c0-13.54,11.02-24.56,24.56-24.56
							c13.54,0,24.56,11.02,24.56,24.56C1401.89,741.23,1390.88,752.25,1377.33,752.25z"/>
						<path d="M1377.33,705.89c12.02,0,21.81,9.78,21.81,21.81c0,12.02-9.78,21.81-21.81,21.81c-12.02,0-21.81-9.78-21.81-21.81
							C1355.53,715.67,1365.31,705.89,1377.33,705.89 M1377.33,700.39c-15.08,0-27.31,12.23-27.31,27.31
							c0,15.08,12.23,27.31,27.31,27.31s27.31-12.23,27.31-27.31C1404.64,712.61,1392.42,700.39,1377.33,700.39L1377.33,700.39z"/>
					</g>
				</g>
				<g>
					<g>
						<path class="st4" d="M1244.92,559.56c-21.21,0-38.47-17.26-38.47-38.47s17.26-38.47,38.47-38.47s38.47,17.26,38.47,38.47
							S1266.14,559.56,1244.92,559.56z"/>
						<path d="M1244.93,485.37c19.69,0,35.72,16.02,35.72,35.72s-16.02,35.72-35.72,35.72c-19.69,0-35.72-16.02-35.72-35.72
							S1225.23,485.37,1244.93,485.37 M1244.93,479.87c-22.76,0-41.22,18.45-41.22,41.22c0,22.76,18.45,41.22,41.22,41.22
							c22.76,0,41.22-18.45,41.22-41.22C1286.14,498.33,1267.69,479.87,1244.93,479.87L1244.93,479.87z"/>
					</g>
					<g>
						<path class="st4" d="M1244.41,545.13c-13.54,0-24.56-11.02-24.56-24.56s11.02-24.56,24.56-24.56
							c13.54,0,24.56,11.02,24.56,24.56S1257.95,545.13,1244.41,545.13z"/>
						<path d="M1244.41,498.77c12.02,0,21.81,9.78,21.81,21.81c0,12.02-9.78,21.81-21.81,21.81s-21.81-9.78-21.81-21.81
							C1222.6,508.55,1232.39,498.77,1244.41,498.77 M1244.41,493.27c-15.08,0-27.31,12.23-27.31,27.31
							c0,15.08,12.23,27.31,27.31,27.31s27.31-12.23,27.31-27.31C1271.72,505.5,1259.49,493.27,1244.41,493.27L1244.41,493.27z"/>
					</g>
				</g>
				<g>
					<g>
						<path class="st4" d="M1377.85,357.6c-21.21,0-38.47-17.26-38.47-38.47c0-21.21,17.26-38.47,38.47-38.47
							s38.47,17.26,38.47,38.47C1416.32,340.34,1399.06,357.6,1377.85,357.6z"/>
						<path d="M1377.85,283.41c19.69,0,35.72,16.02,35.72,35.72s-16.02,35.72-35.72,35.72c-19.69,0-35.72-16.02-35.72-35.72
							S1358.16,283.41,1377.85,283.41 M1377.85,277.91c-22.76,0-41.22,18.45-41.22,41.22c0,22.76,18.45,41.22,41.22,41.22
							c22.76,0,41.22-18.45,41.22-41.22C1419.07,296.37,1400.61,277.91,1377.85,277.91L1377.85,277.91z"/>
					</g>
					<g>
						<path class="st4" d="M1377.33,343.17c-13.54,0-24.56-11.02-24.56-24.56s11.02-24.56,24.56-24.56
							c13.54,0,24.56,11.02,24.56,24.56S1390.88,343.17,1377.33,343.17z"/>
						<path d="M1377.33,296.81c12.02,0,21.81,9.78,21.81,21.81s-9.78,21.81-21.81,21.81c-12.02,0-21.81-9.78-21.81-21.81
							S1365.31,296.81,1377.33,296.81 M1377.33,291.31c-15.08,0-27.31,12.23-27.31,27.31c0,15.08,12.23,27.31,27.31,27.31
							s27.31-12.23,27.31-27.31C1404.64,303.53,1392.42,291.31,1377.33,291.31L1377.33,291.31z"/>
					</g>
				</g>
			</g>
			<g class="st3">
				<g>
					<g>
						
							<ellipse transform="matrix(0.2298 -0.9732 0.9732 0.2298 545.357 941.9654)" class="st4" cx="867.79" cy="126.44" rx="38.47" ry="38.47"/>
						<path d="M867.79,90.72c19.69,0,35.72,16.02,35.72,35.72s-16.02,35.72-35.72,35.72s-35.72-16.02-35.72-35.72
							S848.1,90.72,867.79,90.72 M867.79,85.22c-22.76,0-41.22,18.45-41.22,41.22s18.45,41.22,41.22,41.22
							c22.76,0,41.22-18.45,41.22-41.22S890.55,85.22,867.79,85.22L867.79,85.22z"/>
					</g>
					<g>
						<path class="st4" d="M867.27,150.48c-13.54,0-24.56-11.02-24.56-24.56s11.02-24.56,24.56-24.56s24.56,11.02,24.56,24.56
							S880.82,150.48,867.27,150.48z"/>
						<path d="M867.27,104.12c12.02,0,21.81,9.78,21.81,21.81c0,12.02-9.78,21.81-21.81,21.81c-12.02,0-21.81-9.78-21.81-21.81
							C845.47,113.9,855.25,104.12,867.27,104.12 M867.27,98.62c-15.08,0-27.31,12.23-27.31,27.31s12.23,27.31,27.31,27.31
							s27.31-12.23,27.31-27.31S882.36,98.62,867.27,98.62L867.27,98.62z"/>
					</g>
				</g>
				<g>
					<g>
						<path class="st4" d="M867.79,964.52c-21.21,0-38.47-17.26-38.47-38.47s17.26-38.47,38.47-38.47
							c21.21,0,38.47,17.26,38.47,38.47S889,964.52,867.79,964.52z"/>
						<path d="M867.79,890.33c19.69,0,35.72,16.02,35.72,35.72s-16.02,35.72-35.72,35.72s-35.72-16.02-35.72-35.72
							S848.1,890.33,867.79,890.33 M867.79,884.83c-22.76,0-41.22,18.45-41.22,41.22c0,22.76,18.45,41.22,41.22,41.22
							c22.76,0,41.22-18.45,41.22-41.22C909.01,903.28,890.55,884.83,867.79,884.83L867.79,884.83z"/>
					</g>
					<g>
						<path class="st4" d="M867.27,950.09c-13.54,0-24.56-11.02-24.56-24.56s11.02-24.56,24.56-24.56s24.56,11.02,24.56,24.56
							S880.82,950.09,867.27,950.09z"/>
						<path d="M867.27,903.73c12.02,0,21.81,9.78,21.81,21.81c0,12.02-9.78,21.81-21.81,21.81c-12.02,0-21.81-9.78-21.81-21.81
							C845.47,913.51,855.25,903.73,867.27,903.73 M867.27,898.23c-15.08,0-27.31,12.23-27.31,27.31
							c0,15.08,12.23,27.31,27.31,27.31s27.31-12.23,27.31-27.31C894.58,910.45,882.36,898.23,867.27,898.23L867.27,898.23z"/>
					</g>
				</g>
				<g>
					<g>
						<circle class="st4" cx="1000.71" cy="728.21" r="38.47"/>
						<path d="M1000.71,692.49c19.69,0,35.72,16.02,35.72,35.72s-16.02,35.72-35.72,35.72S965,747.9,965,728.21
							S981.02,692.49,1000.71,692.49 M1000.71,686.99c-22.76,0-41.22,18.45-41.22,41.22c0,22.76,18.45,41.22,41.22,41.22
							c22.76,0,41.22-18.45,41.22-41.22C1041.93,705.44,1023.48,686.99,1000.71,686.99L1000.71,686.99z"/>
					</g>
					<g>
						<path class="st4" d="M1000.2,752.25c-13.54,0-24.56-11.02-24.56-24.56c0-13.54,11.02-24.56,24.56-24.56
							c13.54,0,24.56,11.02,24.56,24.56C1024.76,741.23,1013.74,752.25,1000.2,752.25z"/>
						<path d="M1000.2,705.89c12.02,0,21.81,9.78,21.81,21.81c0,12.02-9.78,21.81-21.81,21.81c-12.02,0-21.81-9.78-21.81-21.81
							C978.39,715.67,988.18,705.89,1000.2,705.89 M1000.2,700.39c-15.08,0-27.31,12.23-27.31,27.31
							c0,15.08,12.23,27.31,27.31,27.31s27.31-12.23,27.31-27.31C1027.51,712.61,1015.28,700.39,1000.2,700.39L1000.2,700.39z"/>
					</g>
				</g>
				<g>
					<g>
						
							<ellipse transform="matrix(0.7071 -0.7071 0.7071 0.7071 -114.2977 766.2443)" class="st4" cx="867.79" cy="521.09" rx="38.47" ry="38.47"/>
						<path d="M867.79,485.37c19.69,0,35.72,16.02,35.72,35.72s-16.02,35.72-35.72,35.72s-35.72-16.02-35.72-35.72
							S848.1,485.37,867.79,485.37 M867.79,479.87c-22.76,0-41.22,18.45-41.22,41.22c0,22.76,18.45,41.22,41.22,41.22
							c22.76,0,41.22-18.45,41.22-41.22C909.01,498.33,890.55,479.87,867.79,479.87L867.79,479.87z"/>
					</g>
					<g>
						<path class="st4" d="M867.27,545.13c-13.54,0-24.56-11.02-24.56-24.56s11.02-24.56,24.56-24.56s24.56,11.02,24.56,24.56
							S880.82,545.13,867.27,545.13z"/>
						<path d="M867.27,498.77c12.02,0,21.81,9.78,21.81,21.81c0,12.02-9.78,21.81-21.81,21.81c-12.02,0-21.81-9.78-21.81-21.81
							C845.47,508.55,855.25,498.77,867.27,498.77 M867.27,493.27c-15.08,0-27.31,12.23-27.31,27.31
							c0,15.08,12.23,27.31,27.31,27.31s27.31-12.23,27.31-27.31C894.58,505.5,882.36,493.27,867.27,493.27L867.27,493.27z"/>
					</g>
				</g>
				<g>
					<g>
						<circle class="st4" cx="1000.71" cy="319.13" r="38.47"/>
						<path d="M1000.71,283.41c19.69,0,35.72,16.02,35.72,35.72s-16.02,35.72-35.72,35.72S965,338.82,965,319.13
							S981.02,283.41,1000.71,283.41 M1000.71,277.91c-22.76,0-41.22,18.45-41.22,41.22c0,22.76,18.45,41.22,41.22,41.22
							c22.76,0,41.22-18.45,41.22-41.22C1041.93,296.37,1023.48,277.91,1000.71,277.91L1000.71,277.91z"/>
					</g>
					<g>
						<path class="st4" d="M1000.2,343.17c-13.54,0-24.56-11.02-24.56-24.56s11.02-24.56,24.56-24.56
							c13.54,0,24.56,11.02,24.56,24.56S1013.74,343.17,1000.2,343.17z"/>
						<path d="M1000.2,296.81c12.02,0,21.81,9.78,21.81,21.81s-9.78,21.81-21.81,21.81c-12.02,0-21.81-9.78-21.81-21.81
							S988.18,296.81,1000.2,296.81 M1000.2,291.31c-15.08,0-27.31,12.23-27.31,27.31c0,15.08,12.23,27.31,27.31,27.31
							s27.31-12.23,27.31-27.31C1027.51,303.53,1015.28,291.31,1000.2,291.31L1000.2,291.31z"/>
					</g>
				</g>
			</g>
			<g class="st3">
				<g>
					<g>
						<circle class="st4" cx="521.57" cy="131.59" r="38.47"/>
						<path d="M521.57,95.87c19.69,0,35.72,16.02,35.72,35.72s-16.02,35.72-35.72,35.72s-35.72-16.02-35.72-35.72
							S501.87,95.87,521.57,95.87 M521.57,90.37c-22.76,0-41.22,18.45-41.22,41.22s18.45,41.22,41.22,41.22
							c22.76,0,41.22-18.45,41.22-41.22S544.33,90.37,521.57,90.37L521.57,90.37z"/>
					</g>
					<g>
						<circle class="st4" cx="521.05" cy="131.08" r="24.56"/>
						<path d="M521.05,109.27c12.02,0,21.81,9.78,21.81,21.81s-9.78,21.81-21.81,21.81c-12.02,0-21.81-9.78-21.81-21.81
							S509.03,109.27,521.05,109.27 M521.05,103.77c-15.08,0-27.31,12.23-27.31,27.31s12.23,27.31,27.31,27.31
							s27.31-12.23,27.31-27.31S536.13,103.77,521.05,103.77L521.05,103.77z"/>
					</g>
				</g>
				<g>
					<g>
						<path class="st4" d="M521.57,969.67c-21.21,0-38.47-17.26-38.47-38.47s17.26-38.47,38.47-38.47s38.47,17.26,38.47,38.47
							S542.78,969.67,521.57,969.67z"/>
						<path d="M521.57,895.48c19.69,0,35.72,16.02,35.72,35.72s-16.02,35.72-35.72,35.72s-35.72-16.02-35.72-35.72
							S501.87,895.48,521.57,895.48 M521.57,889.98c-22.76,0-41.22,18.45-41.22,41.22s18.45,41.22,41.22,41.22
							c22.76,0,41.22-18.45,41.22-41.22S544.33,889.98,521.57,889.98L521.57,889.98z"/>
					</g>
					<g>
						<path class="st4" d="M521.05,955.24c-13.54,0-24.56-11.02-24.56-24.56c0-13.54,11.02-24.56,24.56-24.56
							s24.56,11.02,24.56,24.56C545.61,944.23,534.59,955.24,521.05,955.24z"/>
						<path d="M521.05,908.88c12.02,0,21.81,9.78,21.81,21.81c0,12.02-9.78,21.81-21.81,21.81c-12.02,0-21.81-9.78-21.81-21.81
							C499.25,918.66,509.03,908.88,521.05,908.88 M521.05,903.38c-15.08,0-27.31,12.23-27.31,27.31s12.23,27.31,27.31,27.31
							s27.31-12.23,27.31-27.31S536.13,903.38,521.05,903.38L521.05,903.38z"/>
					</g>
				</g>
				<g>
					<g>
						
							<ellipse transform="matrix(0.1602 -0.9871 0.9871 0.1602 -174.2355 1261.9296)" class="st4" cx="654.49" cy="733.36" rx="38.47" ry="38.47"/>
						<path d="M654.49,697.64c19.69,0,35.72,16.02,35.72,35.72s-16.02,35.72-35.72,35.72s-35.72-16.02-35.72-35.72
							S634.8,697.64,654.49,697.64 M654.49,692.14c-22.76,0-41.22,18.45-41.22,41.22s18.45,41.22,41.22,41.22
							c22.76,0,41.22-18.45,41.22-41.22S677.26,692.14,654.49,692.14L654.49,692.14z"/>
					</g>
					<g>
						<path class="st4" d="M653.98,757.4c-13.54,0-24.56-11.02-24.56-24.56c0-13.54,11.02-24.56,24.56-24.56
							s24.56,11.02,24.56,24.56C678.53,746.38,667.52,757.4,653.98,757.4z"/>
						<path d="M653.98,711.04c12.02,0,21.81,9.78,21.81,21.81c0,12.02-9.78,21.81-21.81,21.81c-12.02,0-21.81-9.78-21.81-21.81
							C632.17,720.82,641.95,711.04,653.98,711.04 M653.98,705.54c-15.08,0-27.31,12.23-27.31,27.31s12.23,27.31,27.31,27.31
							s27.31-12.23,27.31-27.31S669.06,705.54,653.98,705.54L653.98,705.54z"/>
					</g>
				</g>
				<g>
					<g>
						<circle class="st4" cx="521.57" cy="526.24" r="38.47"/>
						<path d="M521.57,490.53c19.69,0,35.72,16.02,35.72,35.72s-16.02,35.72-35.72,35.72s-35.72-16.02-35.72-35.72
							S501.87,490.53,521.57,490.53 M521.57,485.03c-22.76,0-41.22,18.45-41.22,41.22s18.45,41.22,41.22,41.22
							c22.76,0,41.22-18.45,41.22-41.22S544.33,485.03,521.57,485.03L521.57,485.03z"/>
					</g>
					<g>
						<path class="st4" d="M521.05,550.29c-13.54,0-24.56-11.02-24.56-24.56s11.02-24.56,24.56-24.56s24.56,11.02,24.56,24.56
							S534.59,550.29,521.05,550.29z"/>
						<path d="M521.05,503.92c12.02,0,21.81,9.78,21.81,21.81s-9.78,21.81-21.81,21.81c-12.02,0-21.81-9.78-21.81-21.81
							S509.03,503.92,521.05,503.92 M521.05,498.42c-15.08,0-27.31,12.23-27.31,27.31c0,15.08,12.23,27.31,27.31,27.31
							s27.31-12.23,27.31-27.31C548.36,510.65,536.13,498.42,521.05,498.42L521.05,498.42z"/>
					</g>
				</g>
				<g>
					<g>
						
							<ellipse transform="matrix(0.7071 -0.7071 0.7071 0.7071 -37.6048 557.7754)" class="st4" cx="654.49" cy="324.28" rx="38.47" ry="38.47"/>
						<path d="M654.49,288.56c19.69,0,35.72,16.02,35.72,35.72S674.19,360,654.49,360s-35.72-16.02-35.72-35.72
							S634.8,288.56,654.49,288.56 M654.49,283.06c-22.76,0-41.22,18.45-41.22,41.22c0,22.76,18.45,41.22,41.22,41.22
							c22.76,0,41.22-18.45,41.22-41.22C695.71,301.52,677.26,283.06,654.49,283.06L654.49,283.06z"/>
					</g>
					<g>
						<path class="st4" d="M653.98,348.32c-13.54,0-24.56-11.02-24.56-24.56s11.02-24.56,24.56-24.56s24.56,11.02,24.56,24.56
							S667.52,348.32,653.98,348.32z"/>
						<path d="M653.98,301.96c12.02,0,21.81,9.78,21.81,21.81s-9.78,21.81-21.81,21.81c-12.02,0-21.81-9.78-21.81-21.81
							S641.95,301.96,653.98,301.96 M653.98,296.46c-15.08,0-27.31,12.23-27.31,27.31c0,15.08,12.23,27.31,27.31,27.31
							s27.31-12.23,27.31-27.31C681.28,308.68,669.06,296.46,653.98,296.46L653.98,296.46z"/>
					</g>
				</g>
			</g>
			<g class="st3">
				<g>
					<g>
						<circle class="st4" cx="1602.48" cy="134.68" r="38.47"/>
						<path d="M1602.48,98.97c19.69,0,35.72,16.02,35.72,35.72s-16.02,35.72-35.72,35.72c-19.69,0-35.72-16.02-35.72-35.72
							S1582.79,98.97,1602.48,98.97 M1602.48,93.47c-22.76,0-41.22,18.45-41.22,41.22s18.45,41.22,41.22,41.22
							s41.22-18.45,41.22-41.22S1625.25,93.47,1602.48,93.47L1602.48,93.47z"/>
					</g>
					<g>
						<path class="st4" d="M1601.97,158.72c-13.54,0-24.56-11.02-24.56-24.56s11.02-24.56,24.56-24.56
							c13.54,0,24.56,11.02,24.56,24.56S1615.51,158.72,1601.97,158.72z"/>
						<path d="M1601.97,112.36c12.02,0,21.81,9.78,21.81,21.81s-9.78,21.81-21.81,21.81c-12.02,0-21.81-9.78-21.81-21.81
							S1589.94,112.36,1601.97,112.36 M1601.97,106.86c-15.08,0-27.31,12.23-27.31,27.31s12.23,27.31,27.31,27.31
							s27.31-12.23,27.31-27.31S1617.05,106.86,1601.97,106.86L1601.97,106.86z"/>
					</g>
				</g>
				<g>
					<g>
						<circle class="st4" cx="1602.48" cy="934.29" r="38.47"/>
						<path d="M1602.48,898.57c19.69,0,35.72,16.02,35.72,35.72s-16.02,35.72-35.72,35.72c-19.69,0-35.72-16.02-35.72-35.72
							S1582.79,898.57,1602.48,898.57 M1602.48,893.07c-22.76,0-41.22,18.45-41.22,41.22c0,22.76,18.45,41.22,41.22,41.22
							s41.22-18.45,41.22-41.22C1643.7,911.53,1625.25,893.07,1602.48,893.07L1602.48,893.07z"/>
					</g>
					<g>
						<path class="st4" d="M1601.97,958.33c-13.54,0-24.56-11.02-24.56-24.56c0-13.54,11.02-24.56,24.56-24.56
							c13.54,0,24.56,11.02,24.56,24.56C1626.52,947.32,1615.51,958.33,1601.97,958.33z"/>
						<path d="M1601.97,911.97c12.02,0,21.81,9.78,21.81,21.81c0,12.02-9.78,21.81-21.81,21.81c-12.02,0-21.81-9.78-21.81-21.81
							C1580.16,921.75,1589.94,911.97,1601.97,911.97 M1601.97,906.47c-15.08,0-27.31,12.23-27.31,27.31s12.23,27.31,27.31,27.31
							s27.31-12.23,27.31-27.31S1617.05,906.47,1601.97,906.47L1601.97,906.47z"/>
					</g>
				</g>
				<g>
					<g>
						<circle class="st4" cx="1735.41" cy="736.45" r="38.47"/>
						<path d="M1735.41,700.73c19.69,0,35.72,16.02,35.72,35.72s-16.02,35.72-35.72,35.72c-19.69,0-35.72-16.02-35.72-35.72
							S1715.71,700.73,1735.41,700.73 M1735.41,695.23c-22.76,0-41.22,18.45-41.22,41.22c0,22.76,18.45,41.22,41.22,41.22
							c22.76,0,41.22-18.45,41.22-41.22C1776.62,713.69,1758.17,695.23,1735.41,695.23L1735.41,695.23z"/>
					</g>
					<g>
						<path class="st4" d="M1734.89,760.49c-13.54,0-24.56-11.02-24.56-24.56c0-13.54,11.02-24.56,24.56-24.56
							c13.54,0,24.56,11.02,24.56,24.56C1759.45,749.48,1748.43,760.49,1734.89,760.49z"/>
						<path d="M1734.89,714.13c12.02,0,21.81,9.78,21.81,21.81c0,12.02-9.78,21.81-21.81,21.81s-21.81-9.78-21.81-21.81
							C1713.09,723.91,1722.87,714.13,1734.89,714.13 M1734.89,708.63c-15.08,0-27.31,12.23-27.31,27.31
							c0,15.08,12.23,27.31,27.31,27.31s27.31-12.23,27.31-27.31C1762.2,720.85,1749.97,708.63,1734.89,708.63L1734.89,708.63z"/>
					</g>
				</g>
				<g>
					<g>
						<circle class="st4" cx="1602.48" cy="529.33" r="38.47"/>
						<path d="M1602.48,493.62c19.69,0,35.72,16.02,35.72,35.72s-16.02,35.72-35.72,35.72c-19.69,0-35.72-16.02-35.72-35.72
							S1582.79,493.62,1602.48,493.62 M1602.48,488.12c-22.76,0-41.22,18.45-41.22,41.22c0,22.76,18.45,41.22,41.22,41.22
							s41.22-18.45,41.22-41.22C1643.7,506.57,1625.25,488.12,1602.48,488.12L1602.48,488.12z"/>
					</g>
					<g>
						<path class="st4" d="M1601.97,553.38c-13.54,0-24.56-11.02-24.56-24.56s11.02-24.56,24.56-24.56
							c13.54,0,24.56,11.02,24.56,24.56S1615.51,553.38,1601.97,553.38z"/>
						<path d="M1601.97,507.01c12.02,0,21.81,9.78,21.81,21.81c0,12.02-9.78,21.81-21.81,21.81c-12.02,0-21.81-9.78-21.81-21.81
							C1580.16,516.8,1589.94,507.01,1601.97,507.01 M1601.97,501.51c-15.08,0-27.31,12.23-27.31,27.31s12.23,27.31,27.31,27.31
							s27.31-12.23,27.31-27.31S1617.05,501.51,1601.97,501.51L1601.97,501.51z"/>
					</g>
				</g>
				<g>
					<g>
						<circle class="st4" cx="1735.41" cy="327.37" r="38.47"/>
						<path d="M1735.41,291.65c19.69,0,35.72,16.02,35.72,35.72s-16.02,35.72-35.72,35.72c-19.69,0-35.72-16.02-35.72-35.72
							S1715.71,291.65,1735.41,291.65 M1735.41,286.15c-22.76,0-41.22,18.45-41.22,41.22c0,22.76,18.45,41.22,41.22,41.22
							c22.76,0,41.22-18.45,41.22-41.22C1776.62,304.61,1758.17,286.15,1735.41,286.15L1735.41,286.15z"/>
					</g>
					<g>
						<path class="st4" d="M1734.89,351.41c-13.54,0-24.56-11.02-24.56-24.56s11.02-24.56,24.56-24.56
							c13.54,0,24.56,11.02,24.56,24.56S1748.43,351.41,1734.89,351.41z"/>
						<path d="M1734.89,305.05c12.02,0,21.81,9.78,21.81,21.81s-9.78,21.81-21.81,21.81s-21.81-9.78-21.81-21.81
							S1722.87,305.05,1734.89,305.05 M1734.89,299.55c-15.08,0-27.31,12.23-27.31,27.31s12.23,27.31,27.31,27.31
							s27.31-12.23,27.31-27.31S1749.97,299.55,1734.89,299.55L1734.89,299.55z"/>
					</g>
				</g>
			</g>
			<path class="st2" d="M159.37-3.91c0,0,40.19,56.67,41.22,144.26s-41.22,155.59-41.22,155.59S69.73,435.05,200.59,535
				s0,404.96,0,404.96l-71.1,168.99H-21.98V-3.91H159.37z"/>
			<g class="st3">
				<g>
					<g>
						
							<ellipse transform="matrix(0.7071 -0.7071 0.7071 0.7071 -40.7043 183.4614)" class="st4" cx="201.11" cy="140.87" rx="38.47" ry="38.47"/>
						<path d="M201.11,105.15c19.69,0,35.72,16.02,35.72,35.72s-16.02,35.72-35.72,35.72c-19.69,0-35.72-16.02-35.72-35.72
							S181.41,105.15,201.11,105.15 M201.11,99.65c-22.76,0-41.22,18.45-41.22,41.22c0,22.76,18.45,41.22,41.22,41.22
							c22.76,0,41.22-18.45,41.22-41.22C242.32,118.1,223.87,99.65,201.11,99.65L201.11,99.65z"/>
					</g>
					<g>
						<path class="st4" d="M200.59,164.91c-13.54,0-24.56-11.02-24.56-24.56s11.02-24.56,24.56-24.56s24.56,11.02,24.56,24.56
							S214.13,164.91,200.59,164.91z"/>
						<path d="M200.59,118.54c12.02,0,21.81,9.78,21.81,21.81c0,12.02-9.78,21.81-21.81,21.81s-21.81-9.78-21.81-21.81
							C178.78,128.33,188.57,118.54,200.59,118.54 M200.59,113.04c-15.08,0-27.31,12.23-27.31,27.31
							c0,15.08,12.23,27.31,27.31,27.31s27.31-12.23,27.31-27.31C227.9,125.27,215.67,113.04,200.59,113.04L200.59,113.04z"/>
					</g>
				</g>
				<g>
					<g>
						
							<ellipse transform="matrix(0.1602 -0.9871 0.9871 0.1602 -759.4388 988.3363)" class="st4" cx="201.11" cy="940.47" rx="38.47" ry="38.47"/>
						<path d="M201.11,904.76c19.69,0,35.72,16.02,35.72,35.72s-16.02,35.72-35.72,35.72c-19.69,0-35.72-16.02-35.72-35.72
							S181.41,904.76,201.11,904.76 M201.11,899.26c-22.76,0-41.22,18.45-41.22,41.22c0,22.76,18.45,41.22,41.22,41.22
							c22.76,0,41.22-18.45,41.22-41.22C242.32,917.71,223.87,899.26,201.11,899.26L201.11,899.26z"/>
					</g>
					<g>
						<path class="st4" d="M200.59,964.52c-13.54,0-24.56-11.02-24.56-24.56c0-13.54,11.02-24.56,24.56-24.56
							s24.56,11.02,24.56,24.56C225.15,953.5,214.13,964.52,200.59,964.52z"/>
						<path d="M200.59,918.15c12.02,0,21.81,9.78,21.81,21.81s-9.78,21.81-21.81,21.81s-21.81-9.78-21.81-21.81
							S188.57,918.15,200.59,918.15 M200.59,912.65c-15.08,0-27.31,12.23-27.31,27.31s12.23,27.31,27.31,27.31
							s27.31-12.23,27.31-27.31S215.67,912.65,200.59,912.65L200.59,912.65z"/>
					</g>
				</g>
				<g>
					<g>
						
							<ellipse transform="matrix(0.1602 -0.9871 0.9871 0.1602 -452.519 953.3936)" class="st4" cx="334.03" cy="742.63" rx="38.47" ry="38.47"/>
						<path d="M334.03,706.92c19.69,0,35.72,16.02,35.72,35.72s-16.02,35.72-35.72,35.72s-35.72-16.02-35.72-35.72
							S314.34,706.92,334.03,706.92 M334.03,701.42c-22.76,0-41.22,18.45-41.22,41.22c0,22.76,18.45,41.22,41.22,41.22
							c22.76,0,41.22-18.45,41.22-41.22C375.25,719.87,356.79,701.42,334.03,701.42L334.03,701.42z"/>
					</g>
					<g>
						<path class="st4" d="M333.52,766.67c-13.54,0-24.56-11.02-24.56-24.56c0-13.54,11.02-24.56,24.56-24.56
							s24.56,11.02,24.56,24.56C358.07,755.66,347.06,766.67,333.52,766.67z"/>
						<path d="M333.51,720.31c12.02,0,21.81,9.78,21.81,21.81c0,12.02-9.78,21.81-21.81,21.81s-21.81-9.78-21.81-21.81
							C311.71,730.09,321.49,720.31,333.51,720.31 M333.51,714.81c-15.08,0-27.31,12.23-27.31,27.31s12.23,27.31,27.31,27.31
							c15.08,0,27.31-12.23,27.31-27.31S348.6,714.81,333.51,714.81L333.51,714.81z"/>
					</g>
				</g>
				<g>
					<g>
						
							<ellipse transform="matrix(0.1602 -0.9871 0.9871 0.1602 -359.7108 648.246)" class="st4" cx="201.11" cy="535.52" rx="38.47" ry="38.47"/>
						<path d="M201.11,499.8c19.69,0,35.72,16.02,35.72,35.72s-16.02,35.72-35.72,35.72c-19.69,0-35.72-16.02-35.72-35.72
							S181.41,499.8,201.11,499.8 M201.11,494.3c-22.76,0-41.22,18.45-41.22,41.22c0,22.76,18.45,41.22,41.22,41.22
							c22.76,0,41.22-18.45,41.22-41.22C242.32,512.75,223.87,494.3,201.11,494.3L201.11,494.3z"/>
					</g>
					<g>
						<path class="st4" d="M200.59,559.56c-13.54,0-24.56-11.02-24.56-24.56s11.02-24.56,24.56-24.56s24.56,11.02,24.56,24.56
							S214.13,559.56,200.59,559.56z"/>
						<path d="M200.59,513.2c12.02,0,21.81,9.78,21.81,21.81c0,12.02-9.78,21.81-21.81,21.81s-21.81-9.78-21.81-21.81
							C178.78,522.98,188.57,513.2,200.59,513.2 M200.59,507.7c-15.08,0-27.31,12.23-27.31,27.31s12.23,27.31,27.31,27.31
							S227.9,550.08,227.9,535S215.67,507.7,200.59,507.7L200.59,507.7z"/>
					</g>
				</g>
				<g>
					<g>
						
							<ellipse transform="matrix(0.7071 -0.7071 0.7071 0.7071 -138.0235 333.8909)" class="st4" cx="334.03" cy="333.55" rx="38.47" ry="38.47"/>
						<path d="M334.03,297.84c19.69,0,35.72,16.02,35.72,35.72s-16.02,35.72-35.72,35.72s-35.72-16.02-35.72-35.72
							S314.34,297.84,334.03,297.84 M334.03,292.34c-22.76,0-41.22,18.45-41.22,41.22c0,22.76,18.45,41.22,41.22,41.22
							c22.76,0,41.22-18.45,41.22-41.22C375.25,310.79,356.79,292.34,334.03,292.34L334.03,292.34z"/>
					</g>
					<g>
						<path class="st4" d="M333.52,357.6c-13.54,0-24.56-11.02-24.56-24.56s11.02-24.56,24.56-24.56s24.56,11.02,24.56,24.56
							S347.06,357.6,333.52,357.6z"/>
						<path d="M333.51,311.23c12.02,0,21.81,9.78,21.81,21.81s-9.78,21.81-21.81,21.81s-21.81-9.78-21.81-21.81
							S321.49,311.23,333.51,311.23 M333.51,305.73c-15.08,0-27.31,12.23-27.31,27.31c0,15.08,12.23,27.31,27.31,27.31
							c15.08,0,27.31-12.23,27.31-27.31C360.82,317.96,348.6,305.73,333.51,305.73L333.51,305.73z"/>
					</g>
				</g>
			</g>
			<path class="st1" d="M-38.46-10.61c0,0,43.96,59.77,45.08,152.14s-45.08,164.09-45.08,164.09s-98.06,146.71,45.08,252.12
				s0,427.08,0,427.08l-77.77,178.22h-165.68V-10.61H-38.46z"/>
			<g class="st3">
				<g>
					<g>
						
							<ellipse transform="matrix(0.7071 -0.7071 0.7071 0.7071 -134.5096 -0.2609)" class="st4" cx="-67.57" cy="162.24" rx="38.47" ry="38.47"/>
						<path d="M-67.57,126.52c19.69,0,35.72,16.02,35.72,35.72s-16.02,35.72-35.72,35.72s-35.72-16.02-35.72-35.72
							S-87.26,126.52-67.57,126.52 M-67.57,121.02c-22.76,0-41.22,18.45-41.22,41.22s18.45,41.22,41.22,41.22
							s41.22-18.45,41.22-41.22S-44.81,121.02-67.57,121.02L-67.57,121.02z"/>
					</g>
					<g>
						<circle class="st4" cx="-68.08" cy="161.72" r="24.56"/>
						<path d="M-68.08,139.92c12.02,0,21.81,9.78,21.81,21.81c0,12.02-9.78,21.81-21.81,21.81s-21.81-9.78-21.81-21.81
							C-89.89,149.7-80.11,139.92-68.08,139.92 M-68.08,134.42c-15.08,0-27.31,12.23-27.31,27.31c0,15.08,12.23,27.31,27.31,27.31
							s27.31-12.23,27.31-27.31C-40.78,146.64-53,134.42-68.08,134.42L-68.08,134.42z"/>
					</g>
				</g>
				<g>
					<g>
						<path class="st4" d="M-67.57,1000.31c-21.21,0-38.47-17.26-38.47-38.47s17.26-38.47,38.47-38.47
							c21.21,0,38.47,17.26,38.47,38.47S-46.36,1000.31-67.57,1000.31z"/>
						<path d="M-67.57,926.13c19.69,0,35.72,16.02,35.72,35.72s-16.02,35.72-35.72,35.72s-35.72-16.02-35.72-35.72
							S-87.26,926.13-67.57,926.13 M-67.57,920.63c-22.76,0-41.22,18.45-41.22,41.22s18.45,41.22,41.22,41.22
							s41.22-18.45,41.22-41.22S-44.81,920.63-67.57,920.63L-67.57,920.63z"/>
					</g>
					<g>
						<circle class="st4" cx="-68.08" cy="961.33" r="24.56"/>
						<path d="M-68.08,939.52c12.02,0,21.81,9.78,21.81,21.81c0,12.02-9.78,21.81-21.81,21.81s-21.81-9.78-21.81-21.81
							C-89.89,949.31-80.11,939.52-68.08,939.52 M-68.08,934.02c-15.08,0-27.31,12.23-27.31,27.31s12.23,27.31,27.31,27.31
							s27.31-12.23,27.31-27.31S-53,934.02-68.08,934.02L-68.08,934.02z"/>
					</g>
				</g>
				<g>
					<g>
						
							<ellipse transform="matrix(0.9239 -0.3827 0.3827 0.9239 -287.3977 83.167)" class="st4" cx="65.36" cy="764" rx="38.47" ry="38.47"/>
						<path d="M65.36,728.29c19.69,0,35.72,16.02,35.72,35.72s-16.02,35.72-35.72,35.72S29.64,783.7,29.64,764
							S45.66,728.29,65.36,728.29 M65.36,722.79c-22.76,0-41.22,18.45-41.22,41.22c0,22.76,18.45,41.22,41.22,41.22
							s41.22-18.45,41.22-41.22C106.57,741.24,88.12,722.79,65.36,722.79L65.36,722.79z"/>
					</g>
					<g>
						<path class="st4" d="M64.84,788.05c-13.54,0-24.56-11.02-24.56-24.56c0-13.54,11.02-24.56,24.56-24.56
							s24.56,11.02,24.56,24.56C89.4,777.03,78.38,788.05,64.84,788.05z"/>
						<path d="M64.84,741.68c12.02,0,21.81,9.78,21.81,21.81s-9.78,21.81-21.81,21.81c-12.02,0-21.81-9.78-21.81-21.81
							S52.82,741.68,64.84,741.68 M64.84,736.18c-15.08,0-27.31,12.23-27.31,27.31s12.23,27.31,27.31,27.31s27.31-12.23,27.31-27.31
							S79.92,736.18,64.84,736.18L64.84,736.18z"/>
					</g>
				</g>
				<g>
					<g>
						
							<ellipse transform="matrix(0.2298 -0.9732 0.9732 0.2298 -594.0373 363.1797)" class="st4" cx="-67.57" cy="556.89" rx="38.47" ry="38.47"/>
						<path d="M-67.57,521.17c19.69,0,35.72,16.02,35.72,35.72s-16.02,35.72-35.72,35.72s-35.72-16.02-35.72-35.72
							S-87.26,521.17-67.57,521.17 M-67.57,515.67c-22.76,0-41.22,18.45-41.22,41.22s18.45,41.22,41.22,41.22
							s41.22-18.45,41.22-41.22S-44.81,515.67-67.57,515.67L-67.57,515.67z"/>
					</g>
					<g>
						<path class="st4" d="M-68.08,580.93c-13.54,0-24.56-11.02-24.56-24.56c0-13.54,11.02-24.56,24.56-24.56
							s24.56,11.02,24.56,24.56C-43.53,569.92-54.54,580.93-68.08,580.93z"/>
						<path d="M-68.08,534.57c12.02,0,21.81,9.78,21.81,21.81c0,12.02-9.78,21.81-21.81,21.81s-21.81-9.78-21.81-21.81
							C-89.89,544.35-80.11,534.57-68.08,534.57 M-68.08,529.07c-15.08,0-27.31,12.23-27.31,27.31s12.23,27.31,27.31,27.31
							s27.31-12.23,27.31-27.31S-53,529.07-68.08,529.07L-68.08,529.07z"/>
					</g>
				</g>
				<g>
					<g>
						
							<ellipse transform="matrix(0.7071 -0.7071 0.7071 0.7071 -231.8288 150.1686)" class="st4" cx="65.36" cy="354.93" rx="38.47" ry="38.47"/>
						<path d="M65.36,319.21c19.69,0,35.72,16.02,35.72,35.72s-16.02,35.72-35.72,35.72s-35.72-16.02-35.72-35.72
							S45.66,319.21,65.36,319.21 M65.36,313.71c-22.76,0-41.22,18.45-41.22,41.22c0,22.76,18.45,41.22,41.22,41.22
							s41.22-18.45,41.22-41.22C106.57,332.16,88.12,313.71,65.36,313.71L65.36,313.71z"/>
					</g>
					<g>
						<circle class="st4" cx="64.84" cy="354.41" r="24.56"/>
						<path d="M64.84,332.6c12.02,0,21.81,9.78,21.81,21.81s-9.78,21.81-21.81,21.81c-12.02,0-21.81-9.78-21.81-21.81
							S52.82,332.6,64.84,332.6 M64.84,327.1c-15.08,0-27.31,12.23-27.31,27.31c0,15.08,12.23,27.31,27.31,27.31
							s27.31-12.23,27.31-27.31C92.15,339.33,79.92,327.1,64.84,327.1L64.84,327.1z"/>
					</g>
				</g>
			</g>
			<g class="st3">
				<g>
					<g>
						<circle class="st4" cx="1874.21" cy="129.59" r="38.47"/>
						<path d="M1874.21,93.88c19.69,0,35.72,16.02,35.72,35.72s-16.02,35.72-35.72,35.72c-19.69,0-35.72-16.02-35.72-35.72
							S1854.52,93.88,1874.21,93.88 M1874.21,88.38c-22.76,0-41.22,18.45-41.22,41.22s18.45,41.22,41.22,41.22
							c22.76,0,41.22-18.45,41.22-41.22S1896.97,88.38,1874.21,88.38L1874.21,88.38z"/>
					</g>
					<g>
						<path class="st4" d="M1873.7,153.64c-13.54,0-24.56-11.02-24.56-24.56s11.02-24.56,24.56-24.56
							c13.54,0,24.56,11.02,24.56,24.56S1887.24,153.64,1873.7,153.64z"/>
						<path d="M1873.7,107.27c12.02,0,21.81,9.78,21.81,21.81s-9.78,21.81-21.81,21.81s-21.81-9.78-21.81-21.81
							S1861.67,107.27,1873.7,107.27 M1873.7,101.77c-15.08,0-27.31,12.23-27.31,27.31s12.23,27.31,27.31,27.31
							s27.31-12.23,27.31-27.31S1888.78,101.77,1873.7,101.77L1873.7,101.77z"/>
					</g>
				</g>
				<g>
					<g>
						<circle class="st4" cx="1874.21" cy="929.2" r="38.47"/>
						<path d="M1874.21,893.49c19.69,0,35.72,16.02,35.72,35.72s-16.02,35.72-35.72,35.72c-19.69,0-35.72-16.02-35.72-35.72
							S1854.52,893.49,1874.21,893.49 M1874.21,887.99c-22.76,0-41.22,18.45-41.22,41.22c0,22.76,18.45,41.22,41.22,41.22
							c22.76,0,41.22-18.45,41.22-41.22C1915.43,906.44,1896.97,887.99,1874.21,887.99L1874.21,887.99z"/>
					</g>
					<g>
						<path class="st4" d="M1873.7,953.24c-13.54,0-24.56-11.02-24.56-24.56c0-13.54,11.02-24.56,24.56-24.56
							c13.54,0,24.56,11.02,24.56,24.56C1898.25,942.23,1887.24,953.24,1873.7,953.24z"/>
						<path d="M1873.7,906.88c12.02,0,21.81,9.78,21.81,21.81c0,12.02-9.78,21.81-21.81,21.81s-21.81-9.78-21.81-21.81
							C1851.89,916.66,1861.67,906.88,1873.7,906.88 M1873.7,901.38c-15.08,0-27.31,12.23-27.31,27.31
							c0,15.08,12.23,27.31,27.31,27.31s27.31-12.23,27.31-27.31C1901,913.61,1888.78,901.38,1873.7,901.38L1873.7,901.38z"/>
					</g>
				</g>
				<g>
					<g>
						<path class="st4" d="M2007.14,769.83c-21.21,0-38.47-17.26-38.47-38.47s17.26-38.47,38.47-38.47s38.47,17.26,38.47,38.47
							S2028.35,769.83,2007.14,769.83z"/>
						<path d="M2007.14,695.64c19.69,0,35.72,16.02,35.72,35.72s-16.02,35.72-35.72,35.72s-35.72-16.02-35.72-35.72
							S1987.44,695.64,2007.14,695.64 M2007.14,690.14c-22.76,0-41.22,18.45-41.22,41.22s18.45,41.22,41.22,41.22
							c22.76,0,41.22-18.45,41.22-41.22S2029.9,690.14,2007.14,690.14L2007.14,690.14z"/>
					</g>
					<g>
						<circle class="st4" cx="2006.62" cy="730.85" r="24.56"/>
						<path d="M2006.62,709.04c12.02,0,21.81,9.78,21.81,21.81c0,12.02-9.78,21.81-21.81,21.81c-12.02,0-21.81-9.78-21.81-21.81
							C1984.81,718.82,1994.6,709.04,2006.62,709.04 M2006.62,703.54c-15.08,0-27.31,12.23-27.31,27.31
							c0,15.08,12.23,27.31,27.31,27.31s27.31-12.23,27.31-27.31C2033.93,715.77,2021.7,703.54,2006.62,703.54L2006.62,703.54z"/>
					</g>
				</g>
				<g>
					<g>
						<circle class="st4" cx="1874.21" cy="524.25" r="38.47"/>
						<path d="M1874.21,488.53c19.69,0,35.72,16.02,35.72,35.72s-16.02,35.72-35.72,35.72c-19.69,0-35.72-16.02-35.72-35.72
							S1854.52,488.53,1874.21,488.53 M1874.21,483.03c-22.76,0-41.22,18.45-41.22,41.22c0,22.76,18.45,41.22,41.22,41.22
							c22.76,0,41.22-18.45,41.22-41.22C1915.43,501.48,1896.97,483.03,1874.21,483.03L1874.21,483.03z"/>
					</g>
					<g>
						<path class="st4" d="M1873.7,548.29c-13.54,0-24.56-11.02-24.56-24.56s11.02-24.56,24.56-24.56
							c13.54,0,24.56,11.02,24.56,24.56S1887.24,548.29,1873.7,548.29z"/>
						<path d="M1873.7,501.93c12.02,0,21.81,9.78,21.81,21.81c0,12.02-9.78,21.81-21.81,21.81s-21.81-9.78-21.81-21.81
							C1851.89,511.71,1861.67,501.93,1873.7,501.93 M1873.7,496.43c-15.08,0-27.31,12.23-27.31,27.31
							c0,15.08,12.23,27.31,27.31,27.31s27.31-12.23,27.31-27.31C1901,508.65,1888.78,496.43,1873.7,496.43L1873.7,496.43z"/>
					</g>
				</g>
				<g>
					<g>
						<path class="st4" d="M2007.14,360.75c-21.21,0-38.47-17.26-38.47-38.47c0-21.21,17.26-38.47,38.47-38.47
							s38.47,17.26,38.47,38.47C2045.6,343.49,2028.35,360.75,2007.14,360.75z"/>
						<path d="M2007.14,286.57c19.69,0,35.72,16.02,35.72,35.72S2026.83,358,2007.14,358s-35.72-16.02-35.72-35.72
							S1987.44,286.57,2007.14,286.57 M2007.14,281.07c-22.76,0-41.22,18.45-41.22,41.22c0,22.76,18.45,41.22,41.22,41.22
							c22.76,0,41.22-18.45,41.22-41.22C2048.35,299.52,2029.9,281.07,2007.14,281.07L2007.14,281.07z"/>
					</g>
					<g>
						<circle class="st4" cx="2006.62" cy="321.77" r="24.56"/>
						<path d="M2006.62,299.96c12.02,0,21.81,9.78,21.81,21.81s-9.78,21.81-21.81,21.81c-12.02,0-21.81-9.78-21.81-21.81
							S1994.6,299.96,2006.62,299.96 M2006.62,294.46c-15.08,0-27.31,12.23-27.31,27.31c0,15.08,12.23,27.31,27.31,27.31
							s27.31-12.23,27.31-27.31C2033.93,306.69,2021.7,294.46,2006.62,294.46L2006.62,294.46z"/>
					</g>
				</g>
			</g>
		</g>
	</g>
</g>
<g id="Layer_2">
</g>
<g id="Layer_3">
</g>
</svg>
