<svg xmlns="http://www.w3.org/2000/svg" viewBox="0 0 845.89 645.55"><title>no-love-map</title><rect x="2" y="48.27" width="841.89" height="595.28" fill="#f5b4c1" stroke="#1d1e1c" stroke-miterlimit="10" stroke-width="4"/><rect x="1198.9" y="588.44" width="22.62" height="22.62" transform="translate(-248.56 -587.85) rotate(19.61)" fill="#e85d9b"/><circle cx="685.61" cy="134.58" r="6.75" fill="#1d1e1c"/><path d="M1235.79,356.92v.9h-12.68v-.9h5.1V345.41h-4.45v-2.27h11.38v2.27h-4.45v11.51Z" transform="translate(-520 -216.5)" fill="#1e1e1c"/><path d="M1253,356.92v.9h-17.64v-.9h4.81a7.37,7.37,0,0,1-2.72-2.71,7.58,7.58,0,0,1-1-3.84,7.26,7.26,0,0,1,2.22-5.41,8.07,8.07,0,0,1,11,0,7.26,7.26,0,0,1,2.22,5.41,7.63,7.63,0,0,1-1,3.84,7.22,7.22,0,0,1-2.72,2.71Zm-5.13-10.31a5.13,5.13,0,0,0-7.37,0,5.49,5.49,0,0,0,0,7.54,5.16,5.16,0,0,0,7.37,0,5.49,5.49,0,0,0,0-7.54Z" transform="translate(-520 -216.5)" fill="#1e1e1c"/><path d="M1255.07,356.92V343.14h2.48v13.78h2v.9H1253v-.9Z" transform="translate(-520 -216.5)" fill="#1e1e1c"/><path d="M1272.84,356.92v.9h-13.25v-.9h2V343.14h2.48v12.33h6.7v1.45Z" transform="translate(-520 -216.5)" fill="#1e1e1c"/><path d="M1273.51,356.92V343.14h10.31v2.33H1276v3.89h7v2.2h-7v3.93h8.08v1.43h2v.9h-14.64v-.9Z" transform="translate(-520 -216.5)" fill="#1e1e1c"/><path d="M1297.89,356.92v.9h-12.68v-.9h5.1V345.41h-4.45v-2.27h11.38v2.27h-4.45v11.51Z" transform="translate(-520 -216.5)" fill="#1e1e1c"/><rect x="679.31" y="156.49" width="12.61" height="12.61" fill="#1d1e1c"/><path d="M1235.79,384.7v.9h-12.68v-.9h2V370.92h9.78l0,2.31h-7.29v4h6.51v2.29h-6.51v5.15Z" transform="translate(-520 -216.5)" fill="#1e1e1c"/><path d="M1253.43,384.7v.9h-17.64v-.9h4.81a7.29,7.29,0,0,1-2.72-2.71,7.58,7.58,0,0,1-1-3.84,7.27,7.27,0,0,1,2.23-5.41,8,8,0,0,1,11,0,7.26,7.26,0,0,1,2.22,5.41,7.54,7.54,0,0,1-1,3.84,7.08,7.08,0,0,1-2.72,2.71Zm-5.13-10.31a5.13,5.13,0,0,0-7.37,0,5.49,5.49,0,0,0,0,7.54,5.16,5.16,0,0,0,7.37,0,5.49,5.49,0,0,0,0-7.54Z" transform="translate(-520 -216.5)" fill="#1e1e1c"/><path d="M1271.07,384.7v.9h-17.64v-.9h4.81a7.29,7.29,0,0,1-2.72-2.71,7.58,7.58,0,0,1-1-3.84,7.27,7.27,0,0,1,2.23-5.41,8,8,0,0,1,11,0,7.23,7.23,0,0,1,2.23,5.41,7.54,7.54,0,0,1-1,3.84,7.08,7.08,0,0,1-2.72,2.71Zm-5.13-10.31a5.13,5.13,0,0,0-7.37,0,5.49,5.49,0,0,0,0,7.54,5.16,5.16,0,0,0,7.37,0,5.49,5.49,0,0,0,0-7.54Z" transform="translate(-520 -216.5)" fill="#1e1e1c"/><path d="M1287.5,384.7v.9h-16.43v-.9h2V370.92h5a8.75,8.75,0,0,1,6.07,1.92,7,7,0,0,1,2.12,5.41q0,4.68-3.7,6.45Zm-3.66-6.45q0-5-5.77-5h-2.48v10.06h2.75a5.88,5.88,0,0,0,4.08-1.27A4.77,4.77,0,0,0,1283.84,378.25Z" transform="translate(-520 -216.5)" fill="#1e1e1c"/><polygon points="677.31 195.86 685.61 182.5 685.61 195.86 677.31 195.86" fill="#1d1e1c"/><polygon points="693.93 195.86 685.63 195.86 685.63 182.5 693.93 195.86" fill="#1d1e1c"/><path d="M1245.12,411.46v.9h-7.84l-3.08-10.06H1234l-3.09,10.06h-7.83v-.9h5.06l-4.81-13.78H1226l3.69,10.56,3.28-10.56h2.23l3.27,10.56,3.7-10.56h2.67l-4.81,13.78Z" transform="translate(-520 -216.5)" fill="#1e1e1c"/><path d="M1262,411.46v.9h-4.68l-1.47-3.34h-7.35l-1.47,3.34h-4.68v-.9h2.43l6.07-13.78h2.65l6.07,13.78Zm-7.16-4.73-2.66-6.05-2.67,6.05Z" transform="translate(-520 -216.5)" fill="#1e1e1c"/><path d="M1271.54,411.46v.9h-12.69v-.9h5.1V400h-4.45v-2.27h11.38V400h-4.45v11.51Z" transform="translate(-520 -216.5)" fill="#1e1e1c"/><path d="M1273.57,411.46V397.68h10.31V400h-7.83v3.89h7v2.2h-7V410h8.08v1.43h2v.9h-14.63v-.9Z" transform="translate(-520 -216.5)" fill="#1e1e1c"/><path d="M1301.08,411.46v.9h-4.53l-3.51-4.94h-3.26v4.94h-4.51v-.9h2V397.68h5.46c2.23,0,3.84.38,4.8,1.13a4.33,4.33,0,0,1,1.45,3.64c0,2.42-1,3.95-3.17,4.57l3.19,4.44Zm-5.35-6.93a2.64,2.64,0,0,0,.75-2.09,2.27,2.27,0,0,0-.77-2,5.29,5.29,0,0,0-2.78-.53h-3.15v5.25h3.09A4.59,4.59,0,0,0,1295.73,404.53Z" transform="translate(-520 -216.5)" fill="#1e1e1c"/><rect x="2" y="2" width="841.89" height="46.27" fill="#ff6c89" stroke="#1d1e1c" stroke-miterlimit="10" stroke-width="4"/><rect x="798.33" y="2" width="45.56" height="45.56" fill="#ff6c89" stroke="#1d1e1c" stroke-miterlimit="10" stroke-width="4"/><line x1="805.84" y1="9.7" x2="836.38" y2="39.86" fill="none" stroke="#1d1e1c" stroke-miterlimit="10" stroke-width="4"/><line x1="836.38" y1="9.7" x2="805.84" y2="39.86" fill="none" stroke="#1d1e1c" stroke-miterlimit="10" stroke-width="4"/><line x1="756.94" y1="25.14" x2="788.07" y2="25.14" fill="none" stroke="#1d1e1c" stroke-miterlimit="10" stroke-width="4"/><rect x="48.81" y="87.85" width="135.12" height="96.87" fill="#ed7aa8" stroke="#000" stroke-miterlimit="10" stroke-width="1.88"/><rect x="111.82" y="136.12" width="152.05" height="109.72" fill="#ed7aa8" stroke="#000" stroke-miterlimit="10" stroke-width="1.88"/><rect x="48.81" y="87.53" width="135.12" height="15.52" fill="#ed7aa8" stroke="#000" stroke-miterlimit="10" stroke-width="1.88"/><rect x="111.82" y="135.81" width="152.05" height="16.36" fill="#ed7aa8" stroke="#000" stroke-miterlimit="10" stroke-width="1.88"/><rect x="167.24" y="87.53" width="16.68" height="15.52" fill="#ed7aa8" stroke="#000" stroke-miterlimit="10" stroke-width="1.88"/><line x1="181.63" y1="89.98" x2="169.53" y2="100.64" fill="none" stroke="#000" stroke-miterlimit="10" stroke-width="1.88"/><line x1="169.53" y1="89.98" x2="181.63" y2="100.64" fill="none" stroke="#000" stroke-miterlimit="10" stroke-width="1.88"/><line x1="151.04" y1="95.31" x2="162.39" y2="95.31" fill="none" stroke="#000" stroke-miterlimit="10" stroke-width="1.88"/><path d="M579.65,390V324.57h6.93c9.41,15.7,31.54,52.26,35.33,59.34h.1c-.51-9.43-.44-19.06-.44-29.72V324.57h4.76V390h-6.39c-9-15.14-31.48-53.2-35.8-60.38H584c.44,8.59.35,18.16.35,30V390Z" transform="translate(-520 -216.5)" stroke="#000" stroke-miterlimit="10" stroke-width="0.31"/><circle cx="125.67" cy="119.1" r="9.47" fill="none" stroke="#000" stroke-miterlimit="10" stroke-width="4.39"/><rect x="136.52" y="125.84" width="3.86" height="3.86"/><circle cx="158.22" cy="206.66" r="10.82" fill="none" stroke="#000" stroke-miterlimit="10" stroke-width="4.39"/><rect x="170.91" y="214.34" width="4.39" height="4.39"/><path d="M648.12,376h5.93v65.27h41.31l-1.09,5H648.12Z" transform="translate(-520 -216.5)" stroke="#000" stroke-miterlimit="10" stroke-width="0.16"/><path d="M706.68,446.36l-25-70.29h5.58l13,36.75c3.76,10.65,8,22.38,9.4,28.3h.19c1.44-5.2,6.05-17.55,9.81-27.9l13.55-37.15h5.48l-26,70.29Z" transform="translate(-520 -216.5)" stroke="#000" stroke-miterlimit="10" stroke-width="0.16"/><path d="M752.2,427.52H734v15h19.93l-.4,2.54H731.2V409.34h21.91v2.54H734V425h18.21l0,2.57Z" transform="translate(-520 -216.5)" stroke="#000" stroke-miterlimit="10" stroke-width="2.19"/><rect x="247.19" y="136.22" width="16.68" height="15.52" fill="#ed7aa8" stroke="#000" stroke-miterlimit="10" stroke-width="1.88"/><line x1="261.58" y1="138.63" x2="249.47" y2="149.32" fill="none" stroke="#000" stroke-miterlimit="10" stroke-width="1.88"/><line x1="249.47" y1="138.63" x2="261.58" y2="149.32" fill="none" stroke="#000" stroke-miterlimit="10" stroke-width="1.88"/><line x1="230.98" y1="143.99" x2="242.33" y2="143.99" fill="none" stroke="#000" stroke-miterlimit="10" stroke-width="1.88"/><path d="M611.63,769.94h2.58v36.24h-2.58v-5.82H572.27v-28l6.61.06v20.82H590.4v-18.6h6.54v18.6h14.69Z" transform="translate(-520 -216.5)" fill="#1e1e1c"/><path d="M611.63,723.86h2.58v46.08h-2.58V757.52q-5,7.15-15.78,7.14H572.27v-7.08h23.28q5.78,0,9.12-2.88a10.73,10.73,0,0,0,0-15.6q-3.34-2.88-9.12-2.88H572.27v-7.08h23.58q10.88,0,15.78,7.2Z" transform="translate(-520 -216.5)" fill="#1e1e1c"/><path d="M611.63,686h2.58v37.87h-2.58V718H572.27V711h35.22V691.83h4.14Z" transform="translate(-520 -216.5)" fill="#1e1e1c"/><path d="M611.63,652h2.58v37.87h-2.58v-5.83H572.27V677h35.22V657.87h4.14Z" transform="translate(-520 -216.5)" fill="#1e1e1c"/><path d="M611.63,601.71h2.58v37.8h-2.58v-7.68a23.84,23.84,0,0,1-3.71,5.28l-5.35-4.44q5.53-6.36,5.52-13.2a9,9,0,0,0-1.46-5.43,4.62,4.62,0,0,0-3.91-2,4.38,4.38,0,0,0-3.78,1.89,20.11,20.11,0,0,0-2.46,6.51,55,55,0,0,1-2,7,15.34,15.34,0,0,1-2.43,4.26q-2.81,3.72-8.63,3.72a10.54,10.54,0,0,1-9-4.23,17,17,0,0,1-3.15-10.47,25.37,25.37,0,0,1,1.32-8,21.24,21.24,0,0,1,3.72-6.84l5.34,3.78a14.29,14.29,0,0,0-2.75,5,19.17,19.17,0,0,0-1.09,6.27,9.29,9.29,0,0,0,1.26,5.07,4.23,4.23,0,0,0,3.81,2,4.42,4.42,0,0,0,3.9-2q1.37-2,2.91-8.43t4.38-9.72a9.92,9.92,0,0,1,7.92-3.27,11.44,11.44,0,0,1,9.66,4.56Z" transform="translate(-520 -216.5)" fill="#1e1e1c"/><path d="M611.63,595.89H572.27v-7.08h39.36V583h2.58v18.72h-2.58Z" transform="translate(-520 -216.5)" fill="#1e1e1c"/><path d="M611.63,546.75h2.58V583h-2.58V568.41H578.75v12.72h-6.48V548.61h6.48v12.72h32.88Z" transform="translate(-520 -216.5)" fill="#1e1e1c"/><path d="M611.63,540.93H572.27V511.47h6.67v22.38H590v-20.1h6.3v20.1h11.22v-23.1h4.08v-5.82h2.58v41.82h-2.58Z" transform="translate(-520 -216.5)" fill="#1e1e1c"/><path d="M1286.09,685.59,1270.59,715l-20.93-11.1c-14.1,22.21-40.27,54.45-83.4,74-55.71,25.18-108.56,15.08-132.54,10.49-39-7.46-77.37-25-81.38-26.82-28.6-13.21-32.92-19.7-55.23-26.25-34-10-42.82-.44-76.15-7.58-20.57-4.4-64.29-13.77-77.9-46.65-10.82-26.14.37-59.91,24.41-86.89H995.76V483.87H1121.5v-37.8h137.31v74s-3.76,55.39-21.58,131.21l18.43,17.26,7.56,4.93Z" transform="translate(-520 -216.5)" fill="#f2a1b2" stroke="#1d1e1c" stroke-miterlimit="10" stroke-width="3"/><path d="M1309.67,521.36l-46,152.11-7.57-4.93-18.47-17.25c17.86-75.74,21.63-131.09,21.63-131.09Z" transform="translate(-520 -216.5)" fill="#ed7aa8" stroke="#1d1e1c" stroke-miterlimit="10" stroke-width="3"/><path d="M897.65,594.37s-7.39,49.54,72.67,84-6.46,88.2-6.46,88.2" transform="translate(-520 -216.5)" fill="#f2a1b2" stroke="#1d1e1c" stroke-miterlimit="10" stroke-width="3"/><path d="M854.37,664.16l7.4,6.68c1.64-1.33,3.34-2.64,5.11-3.9,13.73-9.83,31.47-17.59,54.27-20" transform="translate(-520 -216.5)" fill="#f2a1b2" stroke="#1d1e1c" stroke-miterlimit="10" stroke-width="3"/><path d="M823.63,728.34s6.36-25.52,28-48.13l-6.46-5.84" transform="translate(-520 -216.5)" fill="#f2a1b2" stroke="#1d1e1c" stroke-miterlimit="10" stroke-width="3"/><polyline points="728.3 382.9 601.5 338.77 601.5 267.76" fill="#f2a1b2" stroke="#1d1e1c" stroke-miterlimit="10" stroke-width="3"/><path d="M1174.81,646.9l75.18,57s-76.53,148.84-278.51,65.78c0,0,35.32-28.72,41.88-50,2.81-9.12,6.3-15.75-8.7-28.52C1168.48,649,1174.58,647,1174.8,646.91Z" transform="translate(-520 -216.5)" fill="#e85d9b"/><path d="M1174.73,646.64l.08.26h0l-170.14,44.22A140.49,140.49,0,0,0,990,680.48c-21.79-14.06-60.35-33.58-60.35-33.58v-.26Z" transform="translate(-520 -216.5)" fill="#f2a1b2"/><path d="M1004.66,691.13l170.14-44.22C1174.58,647,1168.48,649,1004.66,691.13Z" transform="translate(-520 -216.5)" fill="#f2a1b2"/><path d="M1174.81,646.9l75.18,57s-76.53,148.84-278.51,65.78c0,0,35.32-28.72,41.88-50,2.81-9.12,6.3-15.75-8.7-28.52A140.49,140.49,0,0,0,990,680.48c-21.79-14.06-60.35-33.58-60.35-33.58" transform="translate(-520 -216.5)" fill="none" stroke="#1d1e1c" stroke-linecap="round" stroke-miterlimit="10" stroke-width="3"/><path d="M1004.66,691.13C1168.48,649,1174.58,647,1174.8,646.91" transform="translate(-520 -216.5)" fill="none" stroke="#1d1e1c" stroke-linecap="round" stroke-miterlimit="10" stroke-width="3"/><line x1="654.81" y1="430.4" x2="654.8" y2="430.41" fill="none" stroke="#1d1e1c" stroke-linecap="round" stroke-miterlimit="10" stroke-width="3"/><path d="M1058,569.13s-31.27,20.39-62.22,24.88c0,0,16.48,35.55-5.54,36.11s-60.54,16.52-60.54,16.52h-8.36" transform="translate(-520 -216.5)" fill="#f2a1b2" stroke="#1d1e1c" stroke-miterlimit="10" stroke-width="3"/><path d="M1121.56,555.22h-.06v-.06Z" transform="translate(-520 -216.5)" fill="#e85d9b"/><path d="M1121.5,555.15v.06c-28.36-4.85-63.26,14.18-63.26,14.18V484.45Z" transform="translate(-520 -216.5)" fill="#e85d9b"/><polygon points="601.5 267.37 601.5 338.64 538.24 267.94 538.24 267.37 601.5 267.37" fill="#e85d9b"/><path d="M1058.24,484.45v84.66H1058s-29.68,20-62.22,24.88V483.87h62.48Z" transform="translate(-520 -216.5)" fill="#e85d9b"/><path d="M1121.87,555.27l-.31,0h-.06c-28.36-4.85-63.26,14.18-63.26,14.18V483.87" transform="translate(-520 -216.5)" fill="none" stroke="#1d1e1c" stroke-miterlimit="10" stroke-width="3"/><path d="M1058,569.11s-29.68,20-62.22,24.88V483.87H1121.5" transform="translate(-520 -216.5)" fill="none" stroke="#1d1e1c" stroke-miterlimit="10" stroke-width="3"/><polyline points="601.5 339.12 601.5 338.71 601.5 338.64 601.5 267.37" fill="none" stroke="#1d1e1c" stroke-miterlimit="10" stroke-width="3"/><polygon points="745.26 445.33 741.77 459.01 734.61 454.35 737.46 443.28 745.26 445.33" fill="#ed7aa8"/><polygon points="576.43 341.42 565.63 344.03 565.63 331.01 576.43 331.01 576.43 341.42" fill="#e85d9b"/><path d="M995.76,594.26" transform="translate(-520 -216.5)" fill="#f2a1b2" stroke="#1d1e1c" stroke-miterlimit="10" stroke-width="3"/><polygon points="518.57 365.69 501.11 372.8 500.7 354.93 518.57 354.93 518.57 365.69" fill="#e85d9b"/><path d="M1259.58,446.07v74.06l-.35.07s-6.64,68.55-10.82,79.19l-126.8-44.12h-.11V446.07Z" transform="translate(-520 -216.5)" fill="#e85d9b"/><polyline points="601.5 229.57 601.5 338.77 601.5 339.12" fill="none" stroke="#1d1e1c" stroke-miterlimit="10" stroke-width="3"/><path d="M1259.23,520.2s-6.64,68.55-10.82,79.19l-126.8-44.12" transform="translate(-520 -216.5)" fill="none" stroke="#1d1e1c" stroke-miterlimit="10" stroke-width="3"/><line x1="739.58" y1="303.63" x2="739.58" y2="229.57" fill="none" stroke="#1d1e1c" stroke-miterlimit="10" stroke-width="3"/><line x1="601.5" y1="229.57" x2="739.58" y2="229.57" fill="none" stroke="#1d1e1c" stroke-miterlimit="10" stroke-width="3"/><rect x="1094.97" y="662.77" width="27.97" height="35.69" transform="translate(-656.03 85.91) rotate(-14.64)" fill="#e85d9b"/><rect x="513.46" y="489.45" width="160.28" height="38.25" fill="#1d1e1c"/><path d="M1057.66,729.89v.8h-11.3v-.8h4.55V719.63h-4v-2h10.14v2h-4v10.26Z" transform="translate(-520 -216.5)" fill="#fff"/><path d="M1059.48,729.89v.8h-1.82v-.8Zm12.72,0h-1.81V717.61h-2.21v5.67h-6.49v-5.67h-2.21v13.08h2.21v-5.35h6.49v5.35h4Z" transform="translate(-520 -216.5)" fill="#fff"/><path d="M1074,729.89V717.61h9.19v2.08h-7v3.46h6.27v2h-6.27v3.49h7.21v1.28h1.81v.8h-13v-.8Z" transform="translate(-520 -216.5)" fill="#fff"/><path d="M1104.19,729.89v.8h-14.63v-.8h1.82V717.61h4.49a7.73,7.73,0,0,1,5.4,1.72,6.15,6.15,0,0,1,1.89,4.81c0,2.78-1.09,4.7-3.29,5.75Zm-3.25-5.75q0-4.49-5.15-4.49h-2.21v9H1096a5.23,5.23,0,0,0,3.63-1.13A4.21,4.21,0,0,0,1100.94,724.14Z" transform="translate(-520 -216.5)" fill="#fff"/><path d="M1106,729.89V717.61h9.18v2.08h-7v3.46h6.27v2h-6.27v3.49h7.21v1.28h1.81v.8h-13v-.8Z" transform="translate(-520 -216.5)" fill="#fff"/><path d="M1128.22,729.89v.8h-11.79v-.8h2.39a7.5,7.5,0,0,1-1.64-1.16l1.38-1.67a6.23,6.23,0,0,0,4.12,1.72,2.78,2.78,0,0,0,1.69-.46,1.42,1.42,0,0,0,.63-1.21,1.37,1.37,0,0,0-.59-1.18,6.16,6.16,0,0,0-2-.77,19.09,19.09,0,0,1-2.19-.63,5.24,5.24,0,0,1-1.33-.76,3.17,3.17,0,0,1-1.16-2.69,3.28,3.28,0,0,1,1.32-2.8,5.29,5.29,0,0,1,3.27-1,7.63,7.63,0,0,1,2.48.41,6.39,6.39,0,0,1,2.14,1.16l-1.18,1.66a4.57,4.57,0,0,0-1.57-.86,6.27,6.27,0,0,0-2-.34,2.91,2.91,0,0,0-1.58.4,1.32,1.32,0,0,0-.62,1.19,1.38,1.38,0,0,0,.62,1.21,9.52,9.52,0,0,0,2.63.91,7.13,7.13,0,0,1,3,1.37,3.06,3.06,0,0,1,1,2.47,3.61,3.61,0,0,1-1.42,3Z" transform="translate(-520 -216.5)" fill="#fff"/><path d="M1130,729.89V717.61h2.21V724l6-6.38H1141l-5.26,5.73,4.76,6.57v0h1.81v.8h-3.85l-4.34-5.72-1.91,2v3.67h-4v-.8Z" transform="translate(-520 -216.5)" fill="#fff"/><path d="M1152.69,729.89v.8h-11.3v-.8h4.54V719.63h-4v-2h10.14v2h-4v10.26Z" transform="translate(-520 -216.5)" fill="#fff"/><path d="M1168.05,729.89v.8h-15.72v-.8h4.29a6.49,6.49,0,0,1-2.43-2.42,6.71,6.71,0,0,1-.89-3.42,6.44,6.44,0,0,1,2-4.82,7.19,7.19,0,0,1,9.8,0,6.47,6.47,0,0,1,2,4.82,6.75,6.75,0,0,1-.88,3.42,6.35,6.35,0,0,1-2.43,2.42Zm-4.58-9.19a4.59,4.59,0,0,0-6.56,0,4.88,4.88,0,0,0,0,6.72,4.59,4.59,0,0,0,6.56,0,4.88,4.88,0,0,0,0-6.72Z" transform="translate(-520 -216.5)" fill="#fff"/><path d="M1180.84,729.89v.8h-12.79v-.8h1.81V717.61h4.49a6.73,6.73,0,0,1,4.34,1.14,4.35,4.35,0,0,1,1.37,3.52,4.16,4.16,0,0,1-1.4,3.48,6.77,6.77,0,0,1-4.27,1.11h-2.32v3Zm-3.71-5.74a2.9,2.9,0,0,0,.66-2.06,2.12,2.12,0,0,0-.84-1.91,4.8,4.8,0,0,0-2.64-.56h-2.24v5.23h2.56A3.41,3.41,0,0,0,1177.13,724.15Z" transform="translate(-520 -216.5)" fill="#fff"/><rect x="614.26" y="267.32" width="111.2" height="34.05" fill="#1d1e1c"/><path d="M1155,505.65v.8h-11.3v-.8h4.54V495.39h-4v-2h10.14v2h-4v10.26Z" transform="translate(-520 -216.5)" fill="#fff"/><path d="M1156.8,505.65v.8H1155v-.8Zm12.72,0h-1.81V493.37h-2.21V499H1159v-5.67h-2.21v13.08H1159V501.1h6.49v5.35h4Z" transform="translate(-520 -216.5)" fill="#fff"/><path d="M1171.34,505.65V493.37h9.18v2.08h-7v3.46h6.26v2h-6.26v3.49h7.2v1.28h1.81v.8h-13v-.8Z" transform="translate(-520 -216.5)" fill="#fff"/><path d="M1198.19,505.65v.8h-11.3v-.8h4.54V495.39h-4v-2h10.14v2h-4v10.26Z" transform="translate(-520 -216.5)" fill="#fff"/><path d="M1212.85,505.65v.8h-4.17l-1.31-3h-6.55l-1.31,3h-4.17v-.8h2.17l5.41-12.28h2.36l5.4,12.28Zm-6.38-4.21-2.37-5.39-2.38,5.39Z" transform="translate(-520 -216.5)" fill="#fff"/><path d="M1224.25,505.65v.8H1211v-.8h1.81V493.37h5.09a7.36,7.36,0,0,1,2.29.32,3.18,3.18,0,0,1,1.44.86,3.4,3.4,0,0,1,.89,2.28,2.7,2.7,0,0,1-1,2.29,4,4,0,0,1-.49.32c-.08.05-.24.12-.46.22a3.41,3.41,0,0,1,1.93,1.09,3.07,3.07,0,0,1,.72,2.07,3.17,3.17,0,0,1-1.46,2.83Zm-9.19-6.85h2.81c1.59,0,2.39-.54,2.39-1.63a1.55,1.55,0,0,0-.58-1.35,3.13,3.13,0,0,0-1.79-.41h-2.83Zm0,5.61h3.46a3.74,3.74,0,0,0,1.86-.38,1.55,1.55,0,0,0,.65-1.45q0-1.74-2.79-1.74h-3.18Z" transform="translate(-520 -216.5)" fill="#fff"/><path d="M1236,505.65v.8h-11.78v-.8h2.39a7.6,7.6,0,0,1-1.64-1.16l1.38-1.67a6.21,6.21,0,0,0,4.12,1.72,2.78,2.78,0,0,0,1.69-.46,1.42,1.42,0,0,0,.63-1.21,1.37,1.37,0,0,0-.59-1.18,6.26,6.26,0,0,0-2-.77,19.09,19.09,0,0,1-2.19-.63,5.24,5.24,0,0,1-1.33-.76,3.19,3.19,0,0,1-1.16-2.7,3.27,3.27,0,0,1,1.32-2.79,5.28,5.28,0,0,1,3.26-1,7.65,7.65,0,0,1,2.49.41,6.24,6.24,0,0,1,2.13,1.16l-1.17,1.66a4.62,4.62,0,0,0-1.58-.86,6.16,6.16,0,0,0-2-.34,2.91,2.91,0,0,0-1.58.4,1.32,1.32,0,0,0-.62,1.19,1.38,1.38,0,0,0,.62,1.21,9.19,9.19,0,0,0,2.63.91,7.13,7.13,0,0,1,3,1.37,3.06,3.06,0,0,1,1,2.46,3.61,3.61,0,0,1-1.42,3Z" transform="translate(-520 -216.5)" fill="#fff"/><polygon points="509.71 348.86 432.7 327.85 417.58 335.41 385.57 297.87 292.92 297.87 292.92 258.54 449.82 258.54 449.82 297.87 405.55 297.87 420.36 324.64 434.47 322.17 509.71 348.86" fill="#1d1e1c"/><path d="M831,499.51v.8H819.7v-.8h4.55V489.25h-4v-2h10.14v2h-4v10.26Z" transform="translate(-520 -216.5)" fill="#fff"/><path d="M832.82,499.51v.8H831v-.8Zm12.72,0h-1.81V487.23h-2.21v5.67H835v-5.67h-2.21v13.08H835V495h6.49v5.35h4Z" transform="translate(-520 -216.5)" fill="#fff"/><path d="M847.36,499.51V487.23h9.18v2.08h-7v3.46h6.27v2h-6.27v3.49h7.21v1.28h1.81v.8h-13v-.8Z" transform="translate(-520 -216.5)" fill="#fff"/><path d="M876.11,499.51v.8H862.9v-.8h1.82V487.23h5.09a7.4,7.4,0,0,1,2.29.32,3.14,3.14,0,0,1,1.43.86,3.36,3.36,0,0,1,.9,2.28,2.73,2.73,0,0,1-1,2.29,4,4,0,0,1-.49.32l-.47.22a3.44,3.44,0,0,1,1.94,1.09,3.07,3.07,0,0,1,.72,2.07,3.2,3.2,0,0,1-1.46,2.83Zm-9.18-6.85h2.8c1.6,0,2.4-.54,2.4-1.63a1.57,1.57,0,0,0-.58-1.35,3.19,3.19,0,0,0-1.8-.41h-2.82Zm0,5.61h3.46a3.74,3.74,0,0,0,1.86-.38,1.55,1.55,0,0,0,.64-1.45c0-1.16-.93-1.74-2.78-1.74h-3.18Z" transform="translate(-520 -216.5)" fill="#fff"/><path d="M890.2,499.51v.8h-4l-3.13-4.4h-2.9v4.4h-4v-.8h1.82V487.23h4.86a7.1,7.1,0,0,1,4.29,1,3.88,3.88,0,0,1,1.29,3.24,3.8,3.8,0,0,1-2.83,4.08l2.85,3.95Zm-4.77-6.18a2.31,2.31,0,0,0,.67-1.86,2,2,0,0,0-.69-1.76,4.59,4.59,0,0,0-2.47-.47h-2.81v4.67h2.75A4,4,0,0,0,885.43,493.33Z" transform="translate(-520 -216.5)" fill="#fff"/><path d="M905.45,499.51v.8H889.73v-.8H894a6.49,6.49,0,0,1-2.43-2.42,6.71,6.71,0,0,1-.89-3.42,6.48,6.48,0,0,1,2-4.82,7.19,7.19,0,0,1,9.8,0,6.47,6.47,0,0,1,2,4.82,6.75,6.75,0,0,1-.88,3.42,6.35,6.35,0,0,1-2.43,2.42Zm-4.58-9.19a4.59,4.59,0,0,0-6.56,0,4.88,4.88,0,0,0,0,6.72,4.59,4.59,0,0,0,6.56,0,4.88,4.88,0,0,0,0-6.72Z" transform="translate(-520 -216.5)" fill="#fff"/><path d="M924.92,499.51v.8h-7l-2.75-9h-.15l-2.75,9h-7v-.8h4.51l-4.29-12.28h2.38l3.29,9.41,2.92-9.41h2l2.92,9.41,3.29-9.41h2.38l-4.28,12.28Z" transform="translate(-520 -216.5)" fill="#fff"/><path d="M936.71,499.51v.8H924.92v-.8h2.4a7.91,7.91,0,0,1-1.65-1.16l1.39-1.67a6.2,6.2,0,0,0,4.11,1.72,2.81,2.81,0,0,0,1.7-.46,1.44,1.44,0,0,0,.62-1.21,1.35,1.35,0,0,0-.59-1.18,6.16,6.16,0,0,0-2-.77,19.09,19.09,0,0,1-2.19-.63,5.17,5.17,0,0,1-1.32-.76,3.16,3.16,0,0,1-1.16-2.7,3.26,3.26,0,0,1,1.32-2.79,5.24,5.24,0,0,1,3.26-1,7.69,7.69,0,0,1,2.49.41,6.44,6.44,0,0,1,2.13,1.16l-1.18,1.66a4.47,4.47,0,0,0-1.57-.86,6.16,6.16,0,0,0-1.95-.34,3,3,0,0,0-1.59.4,1.31,1.31,0,0,0-.61,1.19,1.37,1.37,0,0,0,.61,1.21,9.65,9.65,0,0,0,2.63.91,7.25,7.25,0,0,1,3,1.36,3.09,3.09,0,0,1,1,2.47,3.59,3.59,0,0,1-1.42,3Z" transform="translate(-520 -216.5)" fill="#fff"/><path d="M938.53,499.51V487.23h9.18v2.08h-7v3.46H947v2h-6.27v3.49h7.21v1.28h1.81v.8h-13v-.8Z" transform="translate(-520 -216.5)" fill="#fff"/><path d="M963,499.51v.8h-4l-3.12-4.4H953v4.4h-4v-.8h1.81V487.23h4.87a7.07,7.07,0,0,1,4.28,1,3.88,3.88,0,0,1,1.29,3.24,3.8,3.8,0,0,1-2.82,4.08l2.84,3.95Zm-4.77-6.18a2.31,2.31,0,0,0,.68-1.86,2,2,0,0,0-.7-1.76,4.57,4.57,0,0,0-2.46-.47H953v4.67h2.75A4,4,0,0,0,958.26,493.33Z" transform="translate(-520 -216.5)" fill="#fff"/><polygon points="572.47 289.95 551.89 259.16 518.14 256.7 497.93 232.02 412.54 232.02 412.54 194.27 557.14 194.27 557.14 232.02 516.34 232.02 525.36 249 555.04 253.15 572.47 289.95" fill="#1d1e1c"/><path d="M950.38,434.79v.8h-11.3v-.8h4.55V424.53h-4v-2H949.8v2h-4v10.26Z" transform="translate(-520 -216.5)" fill="#fff"/><path d="M952.2,434.79v.8h-1.82v-.8Zm12.72,0H963.1V422.51h-2.2v5.67h-6.5v-5.67h-2.2v13.08h2.2v-5.35h6.5v5.35h4Z" transform="translate(-520 -216.5)" fill="#fff"/><path d="M966.73,434.79V422.51h9.19v2.08h-7v3.46h6.27v2h-6.27v3.49h7.2v1.28H978v.8h-13v-.8Z" transform="translate(-520 -216.5)" fill="#fff"/><path d="M993.58,434.79v.8h-11.3v-.8h4.55V424.53h-4v-2H993v2h-4v10.26Z" transform="translate(-520 -216.5)" fill="#fff"/><path d="M1008.25,434.79v.8h-4.17l-1.31-3h-6.55l-1.31,3h-4.17v-.8h2.17l5.4-12.28h2.36l5.41,12.28Zm-6.38-4.21-2.38-5.39-2.37,5.39Z" transform="translate(-520 -216.5)" fill="#fff"/><path d="M1018.22,434.79v.8h-11.79v-.8h2.4a7.56,7.56,0,0,1-1.65-1.16l1.39-1.67a6.2,6.2,0,0,0,4.11,1.72,2.81,2.81,0,0,0,1.7-.46A1.44,1.44,0,0,0,1015,432a1.35,1.35,0,0,0-.59-1.18,6.16,6.16,0,0,0-2-.77,18.23,18.23,0,0,1-2.18-.63,5.07,5.07,0,0,1-1.33-.76,3.16,3.16,0,0,1-1.16-2.7,3.27,3.27,0,0,1,1.32-2.79,5.26,5.26,0,0,1,3.26-1,7.65,7.65,0,0,1,2.49.41,6.44,6.44,0,0,1,2.13,1.16l-1.18,1.66a4.47,4.47,0,0,0-1.57-.86,6.16,6.16,0,0,0-1.95-.34,2.89,2.89,0,0,0-1.58.4,1.3,1.3,0,0,0-.62,1.19,1.35,1.35,0,0,0,.62,1.21,9.09,9.09,0,0,0,2.62.91,7.18,7.18,0,0,1,3,1.37,3.08,3.08,0,0,1,1,2.46,3.59,3.59,0,0,1-1.42,3Z" transform="translate(-520 -216.5)" fill="#fff"/><path d="M1020,434.79V422.51h2.2v6.38l6-6.38H1031l-5.26,5.73,4.75,6.57v0h1.82v.8h-3.86l-4.34-5.72-1.91,2.05v3.67h-4v-.8Z" transform="translate(-520 -216.5)" fill="#fff"/><path d="M1044.6,434.79v.8h-13.21v-.8h1.82V422.51h5.08a7.47,7.47,0,0,1,2.3.32,3.14,3.14,0,0,1,1.43.86,3.36,3.36,0,0,1,.9,2.28,2.71,2.71,0,0,1-1,2.29,4.16,4.16,0,0,1-.48.32l-.47.22a3.44,3.44,0,0,1,1.94,1.09,3.07,3.07,0,0,1,.72,2.07,3.2,3.2,0,0,1-1.46,2.83Zm-9.19-6.85h2.81c1.6,0,2.4-.54,2.4-1.63A1.57,1.57,0,0,0,1040,425a3.19,3.19,0,0,0-1.8-.41h-2.83Zm0,5.61h3.47a3.74,3.74,0,0,0,1.86-.38,1.55,1.55,0,0,0,.64-1.45q0-1.74-2.79-1.74h-3.18Z" transform="translate(-520 -216.5)" fill="#fff"/><path d="M1060.15,434.79v.8H1056l-1.31-3h-6.55l-1.31,3h-4.17v-.8h2.17l5.4-12.28h2.36l5.41,12.28Zm-6.38-4.21-2.38-5.39-2.37,5.39Z" transform="translate(-520 -216.5)" fill="#fff"/><path d="M1072.42,434.79v.8h-4l-3.12-4.4h-2.9v4.4h-4v-.8h1.82V422.51H1065a7.08,7.08,0,0,1,4.29,1,3.88,3.88,0,0,1,1.29,3.24,3.79,3.79,0,0,1-2.83,4.08l2.85,4Zm-4.77-6.18a2.31,2.31,0,0,0,.67-1.86,2,2,0,0,0-.69-1.76,4.59,4.59,0,0,0-2.47-.47h-2.8v4.67h2.75A4,4,0,0,0,1067.65,428.61Z" transform="translate(-520 -216.5)" fill="#fff"/><rect x="469.65" y="385.2" width="34.53" height="12.33" fill="#f2a1b2"/><polygon points="565.81 416.06 565.81 448.47 446.39 448.47 446.39 416.06 487.81 416.06 481.63 400.34 460.77 409.42 432.79 390.88 460.77 404.43 483.94 391.96 501.35 416.06 565.81 416.06" fill="#1d1e1c"/><path d="M985.78,654v.81h-11.3V654H979V643.77h-4v-2H985.2v2h-4V654Z" transform="translate(-520 -216.5)" fill="#fff"/><path d="M987.6,654v.81h-1.82V654Zm12.72,0H998.5V641.75h-2.2v5.67h-6.5v-5.67h-2.2v13.08h2.2v-5.35h6.5v5.35h4Z" transform="translate(-520 -216.5)" fill="#fff"/><path d="M1002.13,654V641.75h9.19v2.08h-7v3.46h6.27v2h-6.27v3.5h7.2V654h1.82v.81h-13V654Z" transform="translate(-520 -216.5)" fill="#fff"/><path d="M1036.07,654v.81h-4V644.61l-4.57,9.07h-1.23l-4.55-9.07v10.22h-4V654h1.82V641.75h3.44l4,8.21,3.94-8.21h3.43V654Z" transform="translate(-520 -216.5)" fill="#fff"/><path d="M1037.89,654V641.75h9.18v2.08h-7v3.46h6.27v2h-6.27v3.5h7.21V654h1.81v.81h-13V654Z" transform="translate(-520 -216.5)" fill="#fff"/><path d="M1050.12,654V641.75h2.21l7.59,9.76v-9.76h2.21V654H1064v.81h-4.21l-7.41-9.55v9.55h-4V654Z" transform="translate(-520 -216.5)" fill="#fff"/><path d="M1078.32,654v.81H1064V654h3.87a5.58,5.58,0,0,1-2.23-4.92v-7.35h2.21V649a4.21,4.21,0,0,0,.9,2.84,3.34,3.34,0,0,0,4.86,0,4.21,4.21,0,0,0,.9-2.84v-7.26h2.21v7.35a5.54,5.54,0,0,1-2.24,4.92Z" transform="translate(-520 -216.5)" fill="#fff"/><rect x="371.23" y="391.39" width="22.36" height="12.29" fill="#f2a1b2"/><polygon points="236.39 353.77 217.53 372.83 235.44 372.83 282.15 419.67 235.04 378.4 203.13 381.76 215.09 353.77 141.4 353.77 141.4 316.57 287.91 316.57 287.91 353.77 236.39 353.77" fill="#1d1e1c"/><path d="M679.42,556.48v.8h-11.3v-.8h4.54V546.23h-4v-2h10.14v2h-4v10.25Z" transform="translate(-520 -216.5)" fill="#fff"/><path d="M681.23,556.48v.8h-1.81v-.8Zm12.72,0h-1.81V544.21h-2.21v5.66h-6.49v-5.66h-2.21v13.07h2.21v-5.35h6.49v5.35h4Z" transform="translate(-520 -216.5)" fill="#fff"/><path d="M695.77,556.48V544.21H705v2.07h-7v3.46h6.26v2H698v3.5h7.2v1.27H707v.8H694v-.8Z" transform="translate(-520 -216.5)" fill="#fff"/><path d="M722.62,556.48v.8H711.31v-.8h1.82V544.21h8.72l0,2h-6.49v3.59h5.8v2h-5.8v4.59Z" transform="translate(-520 -216.5)" fill="#fff"/><path d="M738.33,556.48v.8H722.62v-.8h4.28a6.46,6.46,0,0,1-2.42-2.42,6.61,6.61,0,0,1-.89-3.42,6.47,6.47,0,0,1,2-4.82,7.2,7.2,0,0,1,9.81,0,6.47,6.47,0,0,1,2,4.82,6.76,6.76,0,0,1-.89,3.42,6.32,6.32,0,0,1-2.42,2.42Zm-4.57-9.19a4.6,4.6,0,0,0-6.57,0,4.88,4.88,0,0,0,0,6.72,4.6,4.6,0,0,0,6.57,0,4.91,4.91,0,0,0,0-6.72Z" transform="translate(-520 -216.5)" fill="#fff"/><path d="M750.14,556.48v.8H738.33v-.8h1.82V544.21h2.2v11h6v1.29Z" transform="translate(-520 -216.5)" fill="#fff"/><path d="M763.55,556.48v.8H748.92v-.8h1.82V544.21h4.49a7.78,7.78,0,0,1,5.4,1.71,6.15,6.15,0,0,1,1.89,4.81c0,2.79-1.1,4.7-3.29,5.75Zm-3.25-5.75q0-4.49-5.15-4.49h-2.21v9h2.45a5.24,5.24,0,0,0,3.64-1.14A4.25,4.25,0,0,0,760.3,550.73Z" transform="translate(-520 -216.5)" fill="#fff"/><path d="M765.37,556.48V544.21h9.18v2.07h-7v3.46h6.27v2h-6.27v3.5h7.21v1.27h1.81v.8h-13v-.8Z" transform="translate(-520 -216.5)" fill="#fff"/><path d="M789.87,556.48v.8h-4l-3.12-4.39h-2.9v4.39h-4v-.8h1.81V544.21h4.87a7.07,7.07,0,0,1,4.28,1,3.88,3.88,0,0,1,1.29,3.24,3.8,3.8,0,0,1-2.82,4.08l2.84,4Zm-4.77-6.18a2.31,2.31,0,0,0,.68-1.86,2,2,0,0,0-.7-1.76,4.67,4.67,0,0,0-2.46-.47h-2.81v4.67h2.75A4,4,0,0,0,785.1,550.3Z" transform="translate(-520 -216.5)" fill="#fff"/><path d="M801.19,556.48v.8H789.41v-.8h2.39a7.27,7.27,0,0,1-1.64-1.16l1.38-1.67a6.21,6.21,0,0,0,4.12,1.72,2.85,2.85,0,0,0,1.69-.45,1.44,1.44,0,0,0,.63-1.22,1.37,1.37,0,0,0-.59-1.18,6.26,6.26,0,0,0-2-.77,19.09,19.09,0,0,1-2.19-.63,5.24,5.24,0,0,1-1.33-.76,3.17,3.17,0,0,1-1.16-2.69,3.28,3.28,0,0,1,1.32-2.8,5.28,5.28,0,0,1,3.26-1,7.65,7.65,0,0,1,2.49.41,6.34,6.34,0,0,1,2.13,1.16l-1.17,1.66a4.62,4.62,0,0,0-1.58-.86,6.14,6.14,0,0,0-2-.33,2.91,2.91,0,0,0-1.58.39,1.32,1.32,0,0,0-.62,1.19,1.38,1.38,0,0,0,.62,1.21,9.19,9.19,0,0,0,2.63.91,7.25,7.25,0,0,1,3,1.37,3.08,3.08,0,0,1,1,2.47,3.59,3.59,0,0,1-1.43,3Z" transform="translate(-520 -216.5)" fill="#fff"/><rect x="346.66" y="467.77" width="108.98" height="35.8" fill="#1d1e1c"/><path d="M889.75,707v.8H877V707h1.82V694.71h4.49a6.73,6.73,0,0,1,4.34,1.14,4.31,4.31,0,0,1,1.36,3.51,4.15,4.15,0,0,1-1.39,3.48A6.79,6.79,0,0,1,883.3,704H881v3ZM886,701.24a2.87,2.87,0,0,0,.66-2,2.13,2.13,0,0,0-.84-1.92,4.8,4.8,0,0,0-2.64-.56H881V702h2.56A3.42,3.42,0,0,0,886,701.24Z" transform="translate(-520 -216.5)" fill="#fff"/><path d="M904.74,707v.8h-4.18l-1.31-3h-6.54l-1.31,3h-4.18V707h2.17l5.41-12.27h2.36L902.57,707Zm-6.38-4.21L896,697.38l-2.38,5.39Z" transform="translate(-520 -216.5)" fill="#fff"/><path d="M917,707v.8h-4l-3.13-4.39h-2.9v4.39h-4V707h1.82V694.71h4.86a7,7,0,0,1,4.28,1,4.47,4.47,0,0,1-1.53,7.31l2.84,4Zm-4.77-6.18a2.31,2.31,0,0,0,.67-1.86,2,2,0,0,0-.69-1.76,4.68,4.68,0,0,0-2.47-.47h-2.81v4.67h2.75A4,4,0,0,0,912.24,700.8Z" transform="translate(-520 -216.5)" fill="#fff"/><path d="M918.36,707V694.71h2.2v6.37l6-6.37h2.81l-5.26,5.72,4.75,6.57v0h1.82v.8h-3.86l-4.34-5.72-1.91,2.06v3.66h-4V707Z" transform="translate(-520 -216.5)" fill="#fff"/><path d="M931.53,707V694.71h2.21V707h1.81v.8h-5.84V707Z" transform="translate(-520 -216.5)" fill="#fff"/><path d="M937.36,707V694.71h2.21l7.6,9.76v-9.76h2.21V707h1.81v.8H947l-7.41-9.54v9.54h-4V707Z" transform="translate(-520 -216.5)" fill="#fff"/><path d="M965.35,707v.8H951.19V707h4.53a6.26,6.26,0,0,1-2.59-2.41,6.77,6.77,0,0,1-1-3.6,6.16,6.16,0,0,1,2-4.72,6.78,6.78,0,0,1,4.81-1.86,6.91,6.91,0,0,1,4.71,1.64l-1.18,1.69a4.52,4.52,0,0,0-1.54-.91,5.82,5.82,0,0,0-1.81-.25,4.86,4.86,0,0,0-3.34,1.19,4.19,4.19,0,0,0-1.34,3.28,4.4,4.4,0,0,0,4.49,4.6,5.68,5.68,0,0,0,3.11-.8v-3.59h2.21v4.47a5.73,5.73,0,0,1-1.69,1.27Z" transform="translate(-520 -216.5)" fill="#fff"/><circle cx="751.64" cy="368.12" r="9.21" fill="#1d1e1c"/><circle cx="248.98" cy="468.22" r="9.21" fill="#1d1e1c"/><rect x="401.15" y="382.2" width="17.93" height="17.93" fill="#1d1e1c"/><rect x="608.6" y="352.63" width="17.93" height="17.93" fill="#1d1e1c"/><rect x="287.91" y="381.2" width="17.93" height="17.93" fill="#1d1e1c"/><polygon points="610.43 335.72 620.92 318.84 620.92 335.72 610.43 335.72" fill="#1d1e1c"/><polygon points="631.42 335.72 620.93 335.72 620.93 318.84 631.42 335.72" fill="#1d1e1c"/><polygon points="730.65 414.41 741.13 397.53 741.13 414.41 730.65 414.41" fill="#1d1e1c"/><polygon points="751.63 414.41 741.15 414.41 741.15 397.53 751.63 414.41" fill="#1d1e1c"/><polygon points="640 460.95 650.48 444.08 650.48 460.95 640 460.95" fill="#1d1e1c"/><polygon points="660.98 460.95 650.5 460.95 650.5 444.08 660.98 460.95" fill="#1d1e1c"/><polygon points="689.36 499.72 699.84 482.84 699.84 499.72 689.36 499.72" fill="#1d1e1c"/><polygon points="710.34 499.72 699.86 499.72 699.86 482.84 710.34 499.72" fill="#1d1e1c"/><polygon points="313.39 398.61 323.87 381.73 323.87 398.61 313.39 398.61" fill="#1d1e1c"/><polygon points="334.37 398.61 323.89 398.61 323.89 381.73 334.37 398.61" fill="#1d1e1c"/><polygon points="513.46 339.45 523.95 322.57 523.95 339.45 513.46 339.45" fill="#1d1e1c"/><polygon points="534.45 339.45 523.96 339.45 523.96 322.57 534.45 339.45" fill="#1d1e1c"/><polygon points="578.47 325.01 588.95 308.14 588.95 325.01 578.47 325.01" fill="#1d1e1c"/><polygon points="599.45 325.01 588.97 325.01 588.97 308.14 599.45 325.01" fill="#1d1e1c"/><polygon points="583.11 370.03 593.6 353.16 593.6 370.03 583.11 370.03" fill="#1d1e1c"/><polygon points="604.1 370.03 593.61 370.03 593.61 353.16 604.1 370.03" fill="#1d1e1c"/><polygon points="793.94 563.59 793.94 601.13 659.27 601.13 659.27 563.59 717.18 563.59 757.75 546.36 732.04 532.62 745.26 477.43 739.94 527.71 779.49 544.85 753.72 563.59 793.94 563.59" fill="#1d1d1b"/><path d="M1193.85,803.66V791.38H1203v2.08h-7v3.46h6.27v2h-6.27v3.49h7.21v1.28h1.81v.8h-13v-.8Z" transform="translate(-520 -216.5)" fill="#fff"/><path d="M1206.08,803.66V791.38h2.21l7.6,9.77v-9.77h2.2v12.28h1.82v.8h-4.21l-7.41-9.54v9.54h-4v-.8Z" transform="translate(-520 -216.5)" fill="#fff"/><path d="M1231.21,803.66v.8h-11.3v-.8h4.55V793.4h-4v-2h10.14v2h-4v10.26Z" transform="translate(-520 -216.5)" fill="#fff"/><path d="M1245.3,803.66v.8h-4l-3.13-4.39h-2.9v4.39h-4v-.8H1233V791.38h4.87a7.07,7.07,0,0,1,4.28,1,3.85,3.85,0,0,1,1.29,3.24,3.8,3.8,0,0,1-2.82,4.08l2.84,3.95Zm-4.77-6.18a2.31,2.31,0,0,0,.67-1.86,2,2,0,0,0-.69-1.76,4.61,4.61,0,0,0-2.47-.47h-2.81v4.67H1238A4,4,0,0,0,1240.53,797.48Z" transform="translate(-520 -216.5)" fill="#fff"/><path d="M1260.53,803.66v.8h-4.17l-1.31-3h-6.55l-1.31,3H1243v-.8h2.17l5.4-12.28H1253l5.41,12.28Zm-6.38-4.21-2.38-5.39-2.37,5.39Z" transform="translate(-520 -216.5)" fill="#fff"/><path d="M1260.53,803.66V791.38h2.21l7.59,9.77v-9.77h2.21v12.28h1.81v.8h-4.21l-7.4-9.54v9.54h-4v-.8Z" transform="translate(-520 -216.5)" fill="#fff"/><path d="M1288.13,803.66v.8h-13.78v-.8h4.16a6.39,6.39,0,0,1-2.33-2.4,6.83,6.83,0,0,1-.85-3.42,6.48,6.48,0,0,1,2-4.83,6.9,6.9,0,0,1,5-1.94,6.56,6.56,0,0,1,5.08,2.24l-1.4,1.53a6.23,6.23,0,0,0-1.77-1.25,4.89,4.89,0,0,0-2-.35,4.59,4.59,0,0,0-3.33,1.28,4.3,4.3,0,0,0-1.35,3.27,4.48,4.48,0,0,0,1.34,3.33,4.34,4.34,0,0,0,3.17,1.34,4.69,4.69,0,0,0,2-.38,6.93,6.93,0,0,0,1.72-1.23l1.43,1.46a7.35,7.35,0,0,1-1.58,1.35Z" transform="translate(-520 -216.5)" fill="#fff"/><path d="M1289.94,803.66V791.38h9.19v2.08h-7v3.46h6.27v2h-6.27v3.49h7.2v1.28h1.82v.8h-13v-.8Z" transform="translate(-520 -216.5)" fill="#fff"/><rect x="1195" y="555" width="25" height="32" transform="translate(-258.36 -588.6) rotate(19.61)" fill="#e85d9b"/></svg>