<svg xmlns="http://www.w3.org/2000/svg" viewBox="0 0 845.89 645.55"><title>no-love-map</title><rect x="2" y="48.27" width="841.89" height="595.28" fill="#f5b4c1" stroke="#1d1e1c" stroke-miterlimit="10" stroke-width="4"/><rect x="1198.9" y="588.44" width="22.62" height="22.62" transform="translate(-248.56 -587.85) rotate(19.61)" fill="#e85d9b"/><circle cx="685.61" cy="134.58" r="6.75" fill="#1d1e1c"/><text transform="translate(703.11 141.32)" font-size="21" fill="#1e1e1c" font-family="MontserratSubrayada-Regular, Montserrat Subrayada"><tspan letter-spacing="-0.02em">T</tspan><tspan x="12.29" y="0">OILET</tspan></text><rect x="679.31" y="156.49" width="12.61" height="12.61" fill="#1d1e1c"/><text transform="translate(703.11 169.1)" font-size="21" fill="#1e1e1c" font-family="MontserratSubrayada-Regular, Montserrat Subrayada">FOOD</text><polygon points="677.31 195.86 685.61 182.5 685.61 195.86 677.31 195.86" fill="#1d1e1c"/><polygon points="693.93 195.86 685.63 195.86 685.63 182.5 693.93 195.86" fill="#1d1e1c"/><text transform="translate(703.11 195.86)" font-size="21" fill="#1e1e1c" font-family="MontserratSubrayada-Regular, Montserrat Subrayada"><tspan letter-spacing="-0.03em">W</tspan><tspan x="21.32" y="0" letter-spacing="-0.06em">A</tspan><tspan x="35.74" y="0">TER</tspan></text><rect x="2" y="2" width="841.89" height="46.27" fill="#ff6c89" stroke="#1d1e1c" stroke-miterlimit="10" stroke-width="4"/><rect x="798.33" y="2" width="45.56" height="45.56" fill="#ff6c89" stroke="#1d1e1c" stroke-miterlimit="10" stroke-width="4"/><line x1="805.84" y1="9.7" x2="836.38" y2="39.86" fill="none" stroke="#1d1e1c" stroke-miterlimit="10" stroke-width="4"/><line x1="836.38" y1="9.7" x2="805.84" y2="39.86" fill="none" stroke="#1d1e1c" stroke-miterlimit="10" stroke-width="4"/><line x1="756.94" y1="25.14" x2="788.07" y2="25.14" fill="none" stroke="#1d1e1c" stroke-miterlimit="10" stroke-width="4"/><rect x="48.81" y="87.85" width="135.12" height="96.87" fill="#ed7aa8" stroke="#000" stroke-miterlimit="10" stroke-width="1.88"/><rect x="111.82" y="136.12" width="152.05" height="109.72" fill="#ed7aa8" stroke="#000" stroke-miterlimit="10" stroke-width="1.88"/><rect x="48.81" y="87.53" width="135.12" height="15.52" fill="#ed7aa8" stroke="#000" stroke-miterlimit="10" stroke-width="1.88"/><rect x="111.82" y="135.81" width="152.05" height="16.36" fill="#ed7aa8" stroke="#000" stroke-miterlimit="10" stroke-width="1.88"/><rect x="167.24" y="87.53" width="16.68" height="15.52" fill="#ed7aa8" stroke="#000" stroke-miterlimit="10" stroke-width="1.88"/><line x1="181.63" y1="89.98" x2="169.53" y2="100.64" fill="none" stroke="#000" stroke-miterlimit="10" stroke-width="1.88"/><line x1="169.53" y1="89.98" x2="181.63" y2="100.64" fill="none" stroke="#000" stroke-miterlimit="10" stroke-width="1.88"/><line x1="151.04" y1="95.31" x2="162.39" y2="95.31" fill="none" stroke="#000" stroke-miterlimit="10" stroke-width="1.88"/><path d="M579.65,390V324.57h6.93c9.41,15.7,31.54,52.26,35.33,59.34h.1c-.51-9.43-.44-19.06-.44-29.72V324.57h4.76V390h-6.39c-9-15.14-31.48-53.2-35.8-60.38H584c.44,8.59.35,18.16.35,30V390Z" transform="translate(-520 -216.5)" stroke="#000" stroke-miterlimit="10" stroke-width="0.31"/><circle cx="125.67" cy="119.1" r="9.47" fill="none" stroke="#000" stroke-miterlimit="10" stroke-width="4.39"/><rect x="136.52" y="125.84" width="3.86" height="3.86"/><circle cx="158.22" cy="206.66" r="10.82" fill="none" stroke="#000" stroke-miterlimit="10" stroke-width="4.39"/><rect x="170.91" y="214.34" width="4.39" height="4.39"/><path d="M648.12,376h5.93v65.27h41.31l-1.09,5H648.12Z" transform="translate(-520 -216.5)" stroke="#000" stroke-miterlimit="10" stroke-width="0.16"/><path d="M706.68,446.36l-25-70.29h5.58l13,36.75c3.76,10.65,8,22.38,9.4,28.3h.19c1.44-5.2,6.05-17.55,9.81-27.9l13.55-37.15h5.48l-26,70.29Z" transform="translate(-520 -216.5)" stroke="#000" stroke-miterlimit="10" stroke-width="0.16"/><path d="M752.2,427.52H734v15h19.93l-.4,2.54H731.2V409.34h21.91v2.54H734V425h18.21l0,2.57Z" transform="translate(-520 -216.5)" stroke="#000" stroke-miterlimit="10" stroke-width="2.19"/><rect x="247.19" y="136.22" width="16.68" height="15.52" fill="#ed7aa8" stroke="#000" stroke-miterlimit="10" stroke-width="1.88"/><line x1="261.58" y1="138.63" x2="249.47" y2="149.32" fill="none" stroke="#000" stroke-miterlimit="10" stroke-width="1.88"/><line x1="249.47" y1="138.63" x2="261.58" y2="149.32" fill="none" stroke="#000" stroke-miterlimit="10" stroke-width="1.88"/><line x1="230.98" y1="143.99" x2="242.33" y2="143.99" fill="none" stroke="#000" stroke-miterlimit="10" stroke-width="1.88"/><text transform="translate(94.21 589.68) rotate(-90)" font-size="60" fill="#1e1e1c" font-family="MontserratSubrayada-Regular, Montserrat Subrayada">FULL SITE</text><path d="M1286.09,685.59,1270.59,715l-20.93-11.1c-14.1,22.21-40.27,54.45-83.4,74-55.71,25.18-108.56,15.08-132.54,10.49-39-7.46-77.37-25-81.38-26.82-28.6-13.21-32.92-19.7-55.23-26.25-34-10-42.82-.44-76.15-7.58-20.57-4.4-64.29-13.77-77.9-46.65-10.82-26.14.37-59.91,24.41-86.89H995.76V483.87H1121.5v-37.8h137.31v74s-3.76,55.39-21.58,131.21l18.43,17.26,7.56,4.93Z" transform="translate(-520 -216.5)" fill="#f2a1b2" stroke="#1d1e1c" stroke-miterlimit="10" stroke-width="3"/><path d="M1309.67,521.36l-46,152.11-7.57-4.93-18.47-17.25c17.86-75.74,21.63-131.09,21.63-131.09Z" transform="translate(-520 -216.5)" fill="#ed7aa8" stroke="#1d1e1c" stroke-miterlimit="10" stroke-width="3"/><path d="M897.65,594.37s-7.39,49.54,72.67,84-6.46,88.2-6.46,88.2" transform="translate(-520 -216.5)" fill="#f2a1b2" stroke="#1d1e1c" stroke-miterlimit="10" stroke-width="3"/><path d="M854.37,664.16l7.4,6.68c1.64-1.33,3.34-2.64,5.11-3.9,13.73-9.83,31.47-17.59,54.27-20" transform="translate(-520 -216.5)" fill="#f2a1b2" stroke="#1d1e1c" stroke-miterlimit="10" stroke-width="3"/><path d="M823.63,728.34s6.36-25.52,28-48.13l-6.46-5.84" transform="translate(-520 -216.5)" fill="#f2a1b2" stroke="#1d1e1c" stroke-miterlimit="10" stroke-width="3"/><polyline points="728.3 382.9 601.5 338.77 601.5 267.76" fill="#f2a1b2" stroke="#1d1e1c" stroke-miterlimit="10" stroke-width="3"/><path d="M1174.81,646.9l75.18,57s-76.53,148.84-278.51,65.78c0,0,35.32-28.72,41.88-50,2.81-9.12,6.3-15.75-8.7-28.52C1168.48,649,1174.58,647,1174.8,646.91Z" transform="translate(-520 -216.5)" fill="#e85d9b"/><path d="M1174.73,646.64l.08.26h0l-170.14,44.22A140.49,140.49,0,0,0,990,680.48c-21.79-14.06-60.35-33.58-60.35-33.58v-.26Z" transform="translate(-520 -216.5)" fill="#f2a1b2"/><path d="M1004.66,691.13l170.14-44.22C1174.58,647,1168.48,649,1004.66,691.13Z" transform="translate(-520 -216.5)" fill="#f2a1b2"/><path d="M1174.81,646.9l75.18,57s-76.53,148.84-278.51,65.78c0,0,35.32-28.72,41.88-50,2.81-9.12,6.3-15.75-8.7-28.52A140.49,140.49,0,0,0,990,680.48c-21.79-14.06-60.35-33.58-60.35-33.58" transform="translate(-520 -216.5)" fill="none" stroke="#1d1e1c" stroke-linecap="round" stroke-miterlimit="10" stroke-width="3"/><path d="M1004.66,691.13C1168.48,649,1174.58,647,1174.8,646.91" transform="translate(-520 -216.5)" fill="none" stroke="#1d1e1c" stroke-linecap="round" stroke-miterlimit="10" stroke-width="3"/><line x1="654.81" y1="430.4" x2="654.8" y2="430.41" fill="none" stroke="#1d1e1c" stroke-linecap="round" stroke-miterlimit="10" stroke-width="3"/><path d="M1058,569.13s-31.27,20.39-62.22,24.88c0,0,16.48,35.55-5.54,36.11s-60.54,16.52-60.54,16.52h-8.36" transform="translate(-520 -216.5)" fill="#f2a1b2" stroke="#1d1e1c" stroke-miterlimit="10" stroke-width="3"/><path d="M1121.56,555.22h-.06v-.06Z" transform="translate(-520 -216.5)" fill="#e85d9b"/><path d="M1121.5,555.15v.06c-28.36-4.85-63.26,14.18-63.26,14.18V484.45Z" transform="translate(-520 -216.5)" fill="#e85d9b"/><polygon points="601.5 267.37 601.5 338.64 538.24 267.94 538.24 267.37 601.5 267.37" fill="#e85d9b"/><path d="M1058.24,484.45v84.66H1058s-29.68,20-62.22,24.88V483.87h62.48Z" transform="translate(-520 -216.5)" fill="#e85d9b"/><path d="M1121.87,555.27l-.31,0h-.06c-28.36-4.85-63.26,14.18-63.26,14.18V483.87" transform="translate(-520 -216.5)" fill="none" stroke="#1d1e1c" stroke-miterlimit="10" stroke-width="3"/><path d="M1058,569.11s-29.68,20-62.22,24.88V483.87H1121.5" transform="translate(-520 -216.5)" fill="none" stroke="#1d1e1c" stroke-miterlimit="10" stroke-width="3"/><polyline points="601.5 339.12 601.5 338.71 601.5 338.64 601.5 267.37" fill="none" stroke="#1d1e1c" stroke-miterlimit="10" stroke-width="3"/><polygon points="745.26 445.33 741.77 459.01 734.61 454.35 737.46 443.28 745.26 445.33" fill="#ed7aa8"/><polygon points="576.43 341.42 565.63 344.03 565.63 331.01 576.43 331.01 576.43 341.42" fill="#e85d9b"/><path d="M995.76,594.26" transform="translate(-520 -216.5)" fill="#f2a1b2" stroke="#1d1e1c" stroke-miterlimit="10" stroke-width="3"/><polygon points="518.57 365.69 501.11 372.8 500.7 354.93 518.57 354.93 518.57 365.69" fill="#e85d9b"/><path d="M1259.58,446.07v74.06l-.35.07s-6.64,68.55-10.82,79.19l-126.8-44.12h-.11V446.07Z" transform="translate(-520 -216.5)" fill="#e85d9b"/><polyline points="601.5 229.57 601.5 338.77 601.5 339.12" fill="none" stroke="#1d1e1c" stroke-miterlimit="10" stroke-width="3"/><path d="M1259.23,520.2s-6.64,68.55-10.82,79.19l-126.8-44.12" transform="translate(-520 -216.5)" fill="none" stroke="#1d1e1c" stroke-miterlimit="10" stroke-width="3"/><line x1="739.58" y1="303.63" x2="739.58" y2="229.57" fill="none" stroke="#1d1e1c" stroke-miterlimit="10" stroke-width="3"/><line x1="601.5" y1="229.57" x2="739.58" y2="229.57" fill="none" stroke="#1d1e1c" stroke-miterlimit="10" stroke-width="3"/><rect x="1094.97" y="662.77" width="27.97" height="35.69" transform="translate(-656.03 85.91) rotate(-14.64)" fill="#e85d9b"/><rect x="513.46" y="489.45" width="160.28" height="38.25" fill="#1d1e1c"/><text transform="translate(526.36 514.19)" font-size="18.71" fill="#fff" font-family="MontserratSubrayada-Regular, Montserrat Subrayada">THE DESK<tspan x="95.02" y="0" letter-spacing="-0.02em">T</tspan><tspan x="105.97" y="0">OP</tspan></text><rect x="614.26" y="267.32" width="111.2" height="34.05" fill="#1d1e1c"/><text transform="translate(623.69 289.95)" font-size="18.71" fill="#fff" font-family="MontserratSubrayada-Regular, Montserrat Subrayada">THE <tspan x="43.2" y="0" letter-spacing="-0.06em">T</tspan><tspan x="53.47" y="0" letter-spacing="0em">ABS</tspan></text><polygon points="509.71 348.86 432.7 327.85 417.58 335.41 385.57 297.87 292.92 297.87 292.92 258.54 449.82 258.54 449.82 297.87 405.55 297.87 420.36 324.64 434.47 322.17 509.71 348.86" fill="#1d1e1c"/><text transform="translate(299.7 283.81)" font-size="18.71" fill="#fff" font-family="MontserratSubrayada-Regular, Montserrat Subrayada">THE BR<tspan x="70.03" y="0" letter-spacing="-0.01em">O</tspan><tspan x="85.61" y="0">WSER</tspan></text><polygon points="572.47 289.95 551.89 259.16 518.14 256.7 497.93 232.02 412.54 232.02 412.54 194.27 557.14 194.27 557.14 232.02 516.34 232.02 525.36 249 555.04 253.15 572.47 289.95" fill="#1d1e1c"/><text transform="translate(419.08 219.09)" font-size="18.71" fill="#fff" font-family="MontserratSubrayada-Regular, Montserrat Subrayada">THE <tspan x="43.2" y="0" letter-spacing="-0.05em">T</tspan><tspan x="53.47" y="0">ASK</tspan><tspan x="92.31" y="0" letter-spacing="-0.01em">B</tspan><tspan x="105.37" y="0">AR</tspan></text><rect x="469.65" y="385.2" width="34.53" height="12.33" fill="#f2a1b2"/><polygon points="565.81 416.06 565.81 448.47 446.39 448.47 446.39 416.06 487.81 416.06 481.63 400.34 460.77 409.42 432.79 390.88 460.77 404.43 483.94 391.96 501.35 416.06 565.81 416.06" fill="#1d1e1c"/><text transform="translate(454.48 438.33)" font-size="18.71" fill="#fff" font-family="MontserratSubrayada-Regular, Montserrat Subrayada">THE MENU</text><rect x="371.23" y="391.39" width="22.36" height="12.29" fill="#f2a1b2"/><polygon points="236.39 353.77 217.53 372.83 235.44 372.83 282.15 419.67 235.04 378.4 203.13 381.76 215.09 353.77 141.4 353.77 141.4 316.57 287.91 316.57 287.91 353.77 236.39 353.77" fill="#1d1e1c"/><text transform="translate(148.12 340.78)" font-size="18.71" fill="#fff" font-family="MontserratSubrayada-Regular, Montserrat Subrayada">THE FOLDERS</text><rect x="346.66" y="467.77" width="108.98" height="35.8" fill="#1d1e1c"/><text transform="translate(356.95 491.28)" font-size="18.71" fill="#fff" font-family="MontserratSubrayada-Regular, Montserrat Subrayada" letter-spacing="-0.04em">P<tspan x="12.09" y="0" letter-spacing="0em">ARKING</tspan></text><circle cx="751.64" cy="368.12" r="9.21" fill="#1d1e1c"/><circle cx="248.98" cy="468.22" r="9.21" fill="#1d1e1c"/><rect x="401.15" y="382.2" width="17.93" height="17.93" fill="#1d1e1c"/><rect x="608.6" y="352.63" width="17.93" height="17.93" fill="#1d1e1c"/><rect x="287.91" y="381.2" width="17.93" height="17.93" fill="#1d1e1c"/><polygon points="610.43 335.72 620.92 318.84 620.92 335.72 610.43 335.72" fill="#1d1e1c"/><polygon points="631.42 335.72 620.93 335.72 620.93 318.84 631.42 335.72" fill="#1d1e1c"/><polygon points="730.65 414.41 741.13 397.53 741.13 414.41 730.65 414.41" fill="#1d1e1c"/><polygon points="751.63 414.41 741.15 414.41 741.15 397.53 751.63 414.41" fill="#1d1e1c"/><polygon points="640 460.95 650.48 444.08 650.48 460.95 640 460.95" fill="#1d1e1c"/><polygon points="660.98 460.95 650.5 460.95 650.5 444.08 660.98 460.95" fill="#1d1e1c"/><polygon points="689.36 499.72 699.84 482.84 699.84 499.72 689.36 499.72" fill="#1d1e1c"/><polygon points="710.34 499.72 699.86 499.72 699.86 482.84 710.34 499.72" fill="#1d1e1c"/><polygon points="313.39 398.61 323.87 381.73 323.87 398.61 313.39 398.61" fill="#1d1e1c"/><polygon points="334.37 398.61 323.89 398.61 323.89 381.73 334.37 398.61" fill="#1d1e1c"/><polygon points="513.46 339.45 523.95 322.57 523.95 339.45 513.46 339.45" fill="#1d1e1c"/><polygon points="534.45 339.45 523.96 339.45 523.96 322.57 534.45 339.45" fill="#1d1e1c"/><polygon points="578.47 325.01 588.95 308.14 588.95 325.01 578.47 325.01" fill="#1d1e1c"/><polygon points="599.45 325.01 588.97 325.01 588.97 308.14 599.45 325.01" fill="#1d1e1c"/><polygon points="583.11 370.03 593.6 353.16 593.6 370.03 583.11 370.03" fill="#1d1e1c"/><polygon points="604.1 370.03 593.61 370.03 593.61 353.16 604.1 370.03" fill="#1d1e1c"/><polygon points="793.94 563.59 793.94 601.13 659.27 601.13 659.27 563.59 717.18 563.59 757.75 546.36 732.04 532.62 745.26 477.43 739.94 527.71 779.49 544.85 753.72 563.59 793.94 563.59" fill="#1d1d1b"/><text transform="translate(672.03 587.96)" font-size="18.71" fill="#fff" font-family="MontserratSubrayada-Regular, Montserrat Subrayada">ENTRANCE</text><rect x="1195" y="555" width="25" height="32" transform="translate(-258.36 -588.6) rotate(19.61)" fill="#e85d9b"/></svg>