<svg xmlns="http://www.w3.org/2000/svg" viewBox="0 0 844.89 644.55"><title>no-love-map</title><rect x="1.5" y="47.77" width="841.89" height="595.28" fill="#f5b5c2" stroke="#1d1d1b" stroke-miterlimit="10" stroke-width="3"/><rect x="1215.9" y="584.66" width="22.62" height="22.62" transform="translate(-266.34 -590.5) rotate(19.61)" fill="#ea5e9c"/><path d="M1313.23,700.88l-15.5,29.43-20.93-11.09c-14.1,22.21-40.27,54.44-83.4,73.95-55.7,25.19-108.56,15.08-132.54,10.49-39-7.45-77.36-25-81.38-26.82-28.59-13.21-32.91-19.69-55.23-26.24-34-10-42.82-.44-76.15-7.58-20.57-4.41-64.28-13.78-77.9-46.65-10.82-26.14.37-59.91,24.42-86.89H1022.9V499.17h125.74v-37.8H1286v74s-3.77,55.4-21.59,131.21l18.44,17.27,7.55,4.93Z" transform="translate(-537.5 -213.23)" fill="#f2a2b3" stroke="#1d1d1b" stroke-miterlimit="10" stroke-width="3"/><path d="M1336.82,536.66l-46,152.11-7.56-4.93-18.48-17.25c17.86-75.75,21.63-131.1,21.63-131.1Z" transform="translate(-537.5 -213.23)" fill="#ed7aa9" stroke="#1d1d1b" stroke-miterlimit="10" stroke-width="3"/><path d="M924.8,609.66s-7.39,49.54,72.67,84S991,781.88,991,781.88" transform="translate(-537.5 -213.23)" fill="#f2a2b3" stroke="#1d1d1b" stroke-miterlimit="10" stroke-width="3"/><path d="M881.51,679.46l7.4,6.68c1.64-1.34,3.34-2.64,5.12-3.91,13.72-9.82,31.46-17.59,54.27-20" transform="translate(-537.5 -213.23)" fill="#f2a2b3" stroke="#1d1d1b" stroke-miterlimit="10" stroke-width="3"/><path d="M850.77,743.63s6.36-25.52,28-48.13l-6.45-5.83" transform="translate(-537.5 -213.23)" fill="#f2a2b3" stroke="#1d1d1b" stroke-miterlimit="10" stroke-width="3"/><polyline points="737.95 401.47 611.14 357.34 611.14 286.33" fill="#f2a2b3" stroke="#1d1d1b" stroke-miterlimit="10" stroke-width="3"/><path d="M956.75,661.94h245.12l.09.25h0L1031.8,706.43a139.31,139.31,0,0,0-14.7-10.66c-21.79-14.06-60.35-33.58-60.35-33.58Z" transform="translate(-537.5 -213.23)" fill="#f2a2b3"/><path d="M1202,662.19l75.17,57S1200.61,868.05,998.62,785c0,0,35.32-28.71,41.88-50,2.81-9.12,6.31-15.75-8.7-28.52,163.82-42.13,169.92-44.14,170.14-44.23Z" transform="translate(-537.5 -213.23)" fill="#ea5e9c"/><path d="M1031.8,706.43l170.14-44.23C1201.72,662.29,1195.62,664.3,1031.8,706.43Z" transform="translate(-537.5 -213.23)" fill="#f2a2b3"/><path d="M1202,662.19l75.17,57S1200.61,868.05,998.62,785c0,0,35.32-28.71,41.88-50,2.81-9.12,6.31-15.75-8.7-28.52a139.31,139.31,0,0,0-14.7-10.66c-21.79-14.06-60.35-33.58-60.35-33.58" transform="translate(-537.5 -213.23)" fill="none" stroke="#1d1d1b" stroke-linecap="round" stroke-miterlimit="10" stroke-width="3"/><path d="M1031.8,706.43c163.82-42.13,169.92-44.14,170.14-44.23" transform="translate(-537.5 -213.23)" fill="none" stroke="#1d1d1b" stroke-linecap="round" stroke-miterlimit="10" stroke-width="3"/><line x1="664.46" y1="448.96" x2="664.44" y2="448.97" fill="none" stroke="#1d1d1b" stroke-linecap="round" stroke-miterlimit="10" stroke-width="3"/><path d="M1085.13,584.43s-31.27,20.38-62.23,24.87c0,0,16.48,35.55-5.54,36.12s-60.54,16.52-60.54,16.52h-8.36" transform="translate(-537.5 -213.23)" fill="#f2a2b3" stroke="#1d1d1b" stroke-miterlimit="10" stroke-width="3"/><path d="M1148.7,570.51h-.06v-.06Z" transform="translate(-537.5 -213.23)" fill="#ea5e9c"/><polygon points="611.14 285.94 611.14 357.21 547.89 286.51 547.89 285.94 611.14 285.94" fill="#ea5e9c"/><path d="M1085.39,499.74l63.25,70.7v.06c-28.35-4.85-63.25,14.18-63.25,14.18V499.74Z" transform="translate(-537.5 -213.23)" fill="#ea5e9c"/><path d="M1085.39,499.74V584.4h-.27s-29.68,20-62.22,24.88V499.17h62.49Z" transform="translate(-537.5 -213.23)" fill="#ea5e9c"/><path d="M1149,570.56l-.31,0h-.06c-28.35-4.85-63.25,14.18-63.25,14.18V499.17" transform="translate(-537.5 -213.23)" fill="none" stroke="#1d1d1b" stroke-miterlimit="10" stroke-width="3"/><path d="M1085.12,584.4s-29.68,20-62.22,24.88V499.17h125.74" transform="translate(-537.5 -213.23)" fill="none" stroke="#1d1d1b" stroke-miterlimit="10" stroke-width="3"/><polyline points="611.14 357.68 611.14 357.27 611.14 357.21 611.14 285.94" fill="none" stroke="#1d1d1b" stroke-miterlimit="10" stroke-width="3"/><polygon points="754.9 463.9 751.41 477.58 744.25 472.92 747.1 461.85 754.9 463.9" fill="#ed7aa9"/><polygon points="586.07 359.99 575.27 362.6 575.27 349.58 586.07 349.58 586.07 359.99" fill="#ea5e9c"/><path d="M1022.9,609.56" transform="translate(-537.5 -213.23)" fill="#f2a2b3" stroke="#1d1d1b" stroke-miterlimit="10" stroke-width="3"/><polygon points="528.22 384.26 510.75 391.37 510.34 373.5 528.22 373.5 528.22 384.26" fill="#ea5e9c"/><path d="M1286.73,461.37v74l-.36.07s-6.64,68.55-10.81,79.21l-126.81-44.14h-.11V461.37Z" transform="translate(-537.5 -213.23)" fill="#ea5e9c"/><polyline points="611.14 248.14 611.14 357.33 611.14 357.68" fill="none" stroke="#1d1d1b" stroke-miterlimit="10" stroke-width="3"/><path d="M1286.37,535.49s-6.64,68.55-10.81,79.21l-126.81-44.14" transform="translate(-537.5 -213.23)" fill="none" stroke="#1d1d1b" stroke-miterlimit="10" stroke-width="3"/><line x1="749.23" y1="322.2" x2="749.23" y2="248.14" fill="none" stroke="#1d1d1b" stroke-miterlimit="10" stroke-width="3"/><line x1="611.14" y1="248.14" x2="749.23" y2="248.14" fill="none" stroke="#1d1d1b" stroke-miterlimit="10" stroke-width="3"/><rect x="1122.12" y="678.06" width="27.97" height="35.69" transform="translate(-676.51 96.54) rotate(-14.64)" fill="#ea5e9c"/><rect x="523.11" y="508.02" width="160.28" height="38.25" fill="#1d1d1b"/><text transform="translate(536.01 532.76)" font-size="18.71" fill="#fff" font-family="MontserratSubrayada-Regular, Montserrat Subrayada">THE DESK<tspan x="95.02" y="0" letter-spacing="-0.02em">T</tspan><tspan x="105.97" y="0">OP</tspan></text><rect x="623.9" y="285.89" width="111.2" height="34.05" fill="#1d1d1b"/><text transform="translate(633.33 308.52)" font-size="18.71" fill="#fff" font-family="MontserratSubrayada-Regular, Montserrat Subrayada">THE <tspan x="43.2" y="0" letter-spacing="-0.06em">T</tspan><tspan x="53.47" y="0" letter-spacing="0em">ABS</tspan></text><polygon points="519.36 367.43 442.35 346.42 427.23 353.98 395.22 316.44 302.56 316.44 302.56 277.11 459.46 277.11 459.46 316.44 415.19 316.44 430 343.21 444.11 340.74 519.36 367.43" fill="#1d1d1b"/><text transform="translate(309.35 302.38)" font-size="18.71" fill="#fff" font-family="MontserratSubrayada-Regular, Montserrat Subrayada">THE BR<tspan x="70.03" y="0" letter-spacing="-0.01em">O</tspan><tspan x="85.61" y="0">WSER</tspan></text><polygon points="582.11 308.52 561.54 277.73 527.78 275.27 507.57 250.59 422.18 250.59 422.18 212.84 566.78 212.84 566.78 250.59 525.98 250.59 535 267.56 564.69 271.71 582.11 308.52" fill="#1d1d1b"/><text transform="translate(428.73 237.66)" font-size="18.71" fill="#fff" font-family="MontserratSubrayada-Regular, Montserrat Subrayada">THE <tspan x="43.2" y="0" letter-spacing="-0.05em">T</tspan><tspan x="53.47" y="0">ASK</tspan><tspan x="92.31" y="0" letter-spacing="-0.01em">B</tspan><tspan x="105.37" y="0">AR</tspan></text><rect x="479.29" y="403.77" width="34.53" height="12.33" fill="#f2a2b3"/><polygon points="575.45 434.63 575.45 467.04 456.04 467.04 456.04 434.63 497.45 434.63 491.27 418.9 470.42 427.99 442.43 409.44 470.42 423 493.58 410.53 511 434.63 575.45 434.63" fill="#1d1d1b"/><text transform="translate(464.12 456.89)" font-size="18.71" fill="#fff" font-family="MontserratSubrayada-Regular, Montserrat Subrayada">THE MENU</text><rect x="380.88" y="409.96" width="22.36" height="12.29" fill="#f2a2b3"/><polygon points="246.03 372.34 227.17 391.4 245.08 391.4 291.79 438.24 244.69 396.97 212.78 400.33 224.73 372.34 151.04 372.34 151.04 335.14 297.56 335.14 297.56 372.34 246.03 372.34" fill="#1d1d1b"/><text transform="translate(157.76 359.35)" font-size="18.71" fill="#fff" font-family="MontserratSubrayada-Regular, Montserrat Subrayada">THE FOLDERS</text><rect x="356.3" y="486.34" width="108.98" height="35.8" fill="#1d1d1b"/><text transform="translate(366.6 509.85)" font-size="18.71" fill="#fff" font-family="MontserratSubrayada-Regular, Montserrat Subrayada" letter-spacing="-0.04em">P<tspan x="12.09" y="0" letter-spacing="0em">ARKING</tspan></text><circle cx="761.28" cy="386.69" r="9.21" fill="#1d1d1b"/><circle cx="258.63" cy="486.79" r="9.21" fill="#1d1d1b"/><rect x="410.8" y="400.77" width="17.93" height="17.93" fill="#1d1d1b"/><rect x="618.25" y="371.2" width="17.93" height="17.93" fill="#1d1d1b"/><rect x="297.55" y="399.77" width="17.93" height="17.93" fill="#1d1d1b"/><polygon points="620.08 354.29 630.56 337.41 630.56 354.29 620.08 354.29" fill="#1d1d1b"/><polygon points="641.06 354.29 630.58 354.29 630.58 337.41 641.06 354.29" fill="#1d1d1b"/><polygon points="740.3 432.98 750.78 416.1 750.78 432.98 740.3 432.98" fill="#1d1d1b"/><polygon points="761.28 432.98 750.8 432.98 750.8 416.1 761.28 432.98" fill="#1d1d1b"/><polygon points="649.64 479.52 660.12 462.64 660.12 479.52 649.64 479.52" fill="#1d1d1b"/><polygon points="670.62 479.52 660.14 479.52 660.14 462.64 670.62 479.52" fill="#1d1d1b"/><polygon points="699 518.29 709.49 501.41 709.49 518.29 699 518.29" fill="#1d1d1b"/><polygon points="719.99 518.29 709.5 518.29 709.5 501.41 719.99 518.29" fill="#1d1d1b"/><polygon points="323.03 417.18 333.51 400.3 333.51 417.18 323.03 417.18" fill="#1d1d1b"/><polygon points="344.01 417.18 333.53 417.18 333.53 400.3 344.01 417.18" fill="#1d1d1b"/><polygon points="523.11 358.02 533.59 341.14 533.59 358.02 523.11 358.02" fill="#1d1d1b"/><polygon points="544.09 358.02 533.61 358.02 533.61 341.14 544.09 358.02" fill="#1d1d1b"/><polygon points="588.11 343.58 598.59 326.71 598.59 343.58 588.11 343.58" fill="#1d1d1b"/><polygon points="609.09 343.58 598.61 343.58 598.61 326.71 609.09 343.58" fill="#1d1d1b"/><polygon points="592.75 388.6 603.24 371.73 603.24 388.6 592.75 388.6" fill="#1d1d1b"/><polygon points="613.74 388.6 603.25 388.6 603.25 371.73 613.74 388.6" fill="#1d1d1b"/><circle cx="685.11" cy="134.08" r="6.75" fill="#1d1d1b"/><text transform="translate(702.61 140.82)" font-size="21" fill="#1d1d1b" font-family="MontserratSubrayada-Regular, Montserrat Subrayada"><tspan letter-spacing="-0.02em">T</tspan><tspan x="12.29" y="0">OILET</tspan></text><rect x="678.81" y="155.99" width="12.61" height="12.61" fill="#1d1d1b"/><text transform="translate(702.61 168.6)" font-size="21" fill="#1d1d1b" font-family="MontserratSubrayada-Regular, Montserrat Subrayada">FOOD</text><polygon points="676.81 195.36 685.11 182 685.11 195.36 676.81 195.36" fill="#1d1d1b"/><polygon points="693.43 195.36 685.13 195.36 685.13 182 693.43 195.36" fill="#1d1d1b"/><text transform="translate(702.61 195.36)" font-size="21" fill="#1d1d1b" font-family="MontserratSubrayada-Regular, Montserrat Subrayada"><tspan letter-spacing="-0.03em">W</tspan><tspan x="21.32" y="0" letter-spacing="-0.06em">A</tspan><tspan x="35.74" y="0">TER</tspan></text><rect x="1.5" y="1.5" width="841.89" height="46.27" fill="#ff6282" stroke="#1d1d1b" stroke-miterlimit="10" stroke-width="3"/><rect x="797.83" y="1.5" width="45.56" height="45.56" fill="#ff6282" stroke="#1d1d1b" stroke-miterlimit="10" stroke-width="3"/><line x1="805.34" y1="9.2" x2="835.88" y2="39.36" fill="none" stroke="#1d1d1b" stroke-miterlimit="10" stroke-width="3"/><line x1="835.88" y1="9.2" x2="805.34" y2="39.36" fill="none" stroke="#1d1d1b" stroke-miterlimit="10" stroke-width="3"/><line x1="756.44" y1="24.64" x2="787.57" y2="24.64" fill="none" stroke="#1d1d1b" stroke-miterlimit="10" stroke-width="3"/><rect x="48.31" y="87.35" width="135.12" height="96.87" fill="#ed7aa9" stroke="#000" stroke-miterlimit="10" stroke-width="1.88"/><rect x="111.32" y="135.62" width="152.05" height="109.72" fill="#ed7aa9" stroke="#000" stroke-miterlimit="10" stroke-width="1.88"/><rect x="48.31" y="87.03" width="135.12" height="15.52" fill="#ed7aa9" stroke="#000" stroke-miterlimit="10" stroke-width="1.88"/><rect x="111.32" y="135.31" width="152.05" height="16.36" fill="#ed7aa9" stroke="#000" stroke-miterlimit="10" stroke-width="1.88"/><rect x="166.74" y="87.03" width="16.68" height="15.52" fill="#ed7aa9" stroke="#000" stroke-miterlimit="10" stroke-width="1.88"/><line x1="181.13" y1="89.48" x2="169.03" y2="100.14" fill="none" stroke="#000" stroke-miterlimit="10" stroke-width="1.88"/><line x1="169.03" y1="89.48" x2="181.13" y2="100.14" fill="none" stroke="#000" stroke-miterlimit="10" stroke-width="1.88"/><line x1="150.54" y1="94.81" x2="161.89" y2="94.81" fill="none" stroke="#000" stroke-miterlimit="10" stroke-width="1.88"/><path d="M596.65,386.22V320.79h6.93c9.41,15.71,31.54,52.26,35.33,59.35h.1c-.51-9.44-.44-19.06-.44-29.72V320.79h4.76v65.43h-6.39c-9-15.14-31.48-53.2-35.8-60.38H601c.44,8.59.35,18.15.35,30v30.38Z" transform="translate(-537.5 -213.23)" stroke="#000" stroke-miterlimit="10" stroke-width="0.31"/><circle cx="125.17" cy="118.6" r="9.47" fill="none" stroke="#000" stroke-miterlimit="10" stroke-width="4.39"/><rect x="136.02" y="125.34" width="3.86" height="3.86"/><circle cx="157.72" cy="206.16" r="10.82" fill="none" stroke="#000" stroke-miterlimit="10" stroke-width="4.39"/><rect x="170.41" y="213.84" width="4.39" height="4.39"/><path d="M665.12,372.27h5.93v65.27h41.31l-1.09,5H665.12Z" transform="translate(-537.5 -213.23)" stroke="#000" stroke-miterlimit="10" stroke-width="0.16"/><path d="M723.68,442.59l-25-70.29h5.58l13,36.74c3.76,10.66,8,22.39,9.4,28.31h.19c1.44-5.2,6.05-17.56,9.81-27.9l13.55-37.15h5.48l-26,70.29Z" transform="translate(-537.5 -213.23)" stroke="#000" stroke-miterlimit="10" stroke-width="0.16"/><path d="M769.2,423.75H751v15h19.93l-.4,2.54H748.2V405.56h21.91v2.54H751v13.07h18.21l0,2.58Z" transform="translate(-537.5 -213.23)" stroke="#000" stroke-miterlimit="10" stroke-width="2.19"/><rect x="246.69" y="135.72" width="16.68" height="15.52" fill="#ed7aa9" stroke="#000" stroke-miterlimit="10" stroke-width="1.88"/><line x1="261.08" y1="138.13" x2="248.97" y2="148.82" fill="none" stroke="#000" stroke-miterlimit="10" stroke-width="1.88"/><line x1="248.97" y1="138.13" x2="261.08" y2="148.82" fill="none" stroke="#000" stroke-miterlimit="10" stroke-width="1.88"/><line x1="230.48" y1="143.49" x2="241.83" y2="143.49" fill="none" stroke="#000" stroke-miterlimit="10" stroke-width="1.88"/><text transform="translate(93.71 589.18) rotate(-90)" font-size="60" fill="#1d1d1b" font-family="MontserratSubrayada-Regular, Montserrat Subrayada">FULL SITE</text></svg>