<?xml version="1.0" encoding="utf-8"?>
<!-- Generator: Adobe Illustrator 23.0.3, SVG Export Plug-In . SVG Version: 6.00 Build 0)  -->
<svg version="1.1" id="Layer_1" xmlns="http://www.w3.org/2000/svg" xmlns:xlink="http://www.w3.org/1999/xlink" x="0px" y="0px"
	 viewBox="0 0 841.9 595.3" style="enable-background:new 0 0 841.9 595.3;" xml:space="preserve">
<style type="text/css">
	.st0{fill:#FF7BAC;stroke:#000000;stroke-width:6;stroke-miterlimit:10;}
	.st1{fill:none;stroke:#000000;stroke-width:6;stroke-miterlimit:10;}
	.st2{stroke:#000000;stroke-miterlimit:10;}
	.st3{fill:none;stroke:#000000;stroke-width:14;stroke-miterlimit:10;}
	.st4{stroke:#000000;stroke-width:0.5;stroke-miterlimit:10;}
	.st5{stroke:#000000;stroke-width:7;stroke-miterlimit:10;}
</style>
<rect x="70.5" y="46.5" class="st0" width="431" height="309"/>
<rect x="271.5" y="200.5" class="st0" width="485" height="350"/>
<rect x="70.5" y="45.5" class="st0" width="431" height="49.5"/>
<rect x="271.5" y="199.5" class="st0" width="485" height="52.2"/>
<rect x="448.3" y="45.5" class="st0" width="53.2" height="49.5"/>
<g>
	<line class="st1" x1="494.2" y1="53.3" x2="455.6" y2="87.3"/>
	<line class="st1" x1="455.6" y1="53.3" x2="494.2" y2="87.3"/>
</g>
<line class="st1" x1="396.6" y1="70.3" x2="432.8" y2="70.3"/>
<g>
	<g>
		<path class="st2" d="M105.1,319.7V111h22.1c30,50.1,100.6,166.7,112.7,189.3h0.3c-1.6-30.1-1.4-60.8-1.4-94.8V111H254v208.7h-20.4
			C204.9,271.4,133.2,150,119.4,127.1h-0.3c1.4,27.4,1.1,57.9,1.1,95.7v96.9L105.1,319.7L105.1,319.7z"/>
	</g>
</g>
<g>
	<circle class="st3" cx="315.7" cy="146.2" r="30.2"/>
	<rect x="350.3" y="167.7" width="12.3" height="12.3"/>
</g>
<g>
	<circle class="st3" cx="419.5" cy="425.5" r="34.5"/>
	<rect x="460" y="450" width="14" height="14"/>
</g>
<g>
	<g>
		<path class="st4" d="M323.5,275.2h18.9v208.2h131.8l-3.5,16H323.5V275.2z"/>
	</g>
</g>
<g>
	<g>
		<path class="st4" d="M510.3,499.5l-79.7-224.2h17.8L490,392.5c12,34,25.4,71.4,30,90.3h0.6c4.6-16.6,19.3-56,31.3-89l43.2-118.5
			h17.5l-82.8,224.2H510.3z"/>
	</g>
</g>
<g>
	<g>
		<path class="st5" d="M655.5,439.4h-58.1v47.9H661l-1.3,8.1h-71.2v-114h69.9v8.1h-61.1v41.7h58.1L655.5,439.4L655.5,439.4z"/>
	</g>
</g>
<rect x="703.3" y="200.8" class="st0" width="53.2" height="49.5"/>
<g>
	<line class="st1" x1="749.2" y1="208.5" x2="710.6" y2="242.6"/>
	<line class="st1" x1="710.6" y1="208.5" x2="749.2" y2="242.6"/>
</g>
<line class="st1" x1="651.6" y1="225.6" x2="687.8" y2="225.6"/>
</svg>
